<svg xmlns="http://www.w3.org/2000/svg" width="334.6" height="226.06" viewBox="0 0 334.6 226.06">
  <g id="Done-rafiki" transform="translate(0 -55)">
    <g id="freepik--background-complete--inject-3" transform="translate(0 55)">
      <rect id="Rectangle_192" data-name="Rectangle 192" width="334.6" height="0.152" transform="translate(0 198.658)" fill="#ebebeb"/>
      <rect id="Rectangle_193" data-name="Rectangle 193" width="22.164" height="0.152" transform="translate(278.909 208.421)" fill="#ebebeb"/>
      <rect id="Rectangle_194" data-name="Rectangle 194" width="5.815" height="0.152" transform="translate(215.837 210.071)" fill="#ebebeb"/>
      <rect id="Rectangle_195" data-name="Rectangle 195" width="12.842" height="0.152" transform="translate(265.398 202.79)" fill="#ebebeb"/>
      <rect id="Rectangle_196" data-name="Rectangle 196" width="28.903" height="0.152" transform="translate(35.106 203.809)" fill="#ebebeb"/>
      <rect id="Rectangle_197" data-name="Rectangle 197" width="4.236" height="0.152" transform="translate(69.972 203.809)" fill="#ebebeb"/>
      <rect id="Rectangle_198" data-name="Rectangle 198" width="62.691" height="0.152" transform="translate(87.98 206.37)" fill="#ebebeb"/>
      <path id="Path_1824" data-name="Path 1824" d="M171.24,226.6H42.024a3.655,3.655,0,0,1-3.814-3.465V58.434A3.659,3.659,0,0,1,42.024,55H171.24a3.656,3.656,0,0,1,3.821,3.465V223.131A3.656,3.656,0,0,1,171.24,226.6ZM42.024,55.121a3.5,3.5,0,0,0-3.647,3.313v164.7a3.5,3.5,0,0,0,3.647,3.313H171.24a3.5,3.5,0,0,0,3.654-3.313V58.434a3.5,3.5,0,0,0-3.654-3.313Z" transform="translate(-12.64 -55)" fill="#ebebeb"/>
      <path id="Path_1825" data-name="Path 1825" d="M387.544,226.6H258.321a3.662,3.662,0,0,1-3.821-3.465V58.434A3.666,3.666,0,0,1,258.321,55H387.544a3.658,3.658,0,0,1,3.808,3.434v164.7A3.655,3.655,0,0,1,387.544,226.6ZM258.321,55.121a3.5,3.5,0,0,0-3.654,3.313v164.7a3.5,3.5,0,0,0,3.654,3.313H387.544a3.5,3.5,0,0,0,3.654-3.313V58.434a3.5,3.5,0,0,0-3.654-3.313Z" transform="translate(-84.189 -55)" fill="#ebebeb"/>
      <rect id="Rectangle_199" data-name="Rectangle 199" width="47.681" height="146.663" transform="translate(62.396 6.523)" fill="#fafafa"/>
      <path id="Path_1826" data-name="Path 1826" d="M144.283,65.75H141.5L124.87,212.413h2.784Z" transform="translate(-41.307 -59.227)" fill="#f5f5f5"/>
      <rect id="Rectangle_200" data-name="Rectangle 200" width="47.145" height="1.292" transform="translate(62.088 7.087)" fill="#e0e0e0"/>
      <rect id="Rectangle_201" data-name="Rectangle 201" width="47.145" height="2.767" transform="translate(62.088 151.9)" fill="#ebebeb"/>
      <rect id="Rectangle_202" data-name="Rectangle 202" width="44.549" height="0.121" transform="translate(63.902 154.545)" fill="#ebebeb"/>
      <path id="Path_1827" data-name="Path 1827" d="M94.17,65.5h44.549V212.962h2.67V63.69H91.5V212.962h2.67Z" transform="translate(-30.268 -58.417)" fill="#ebebeb"/>
      <rect id="Rectangle_203" data-name="Rectangle 203" width="47.681" height="146.663" transform="translate(115.457 6.523)" fill="#fafafa"/>
      <path id="Path_1828" data-name="Path 1828" d="M208.277,65.75h-15.2L176.45,212.413h15.2Z" transform="translate(-58.37 -59.227)" fill="#f5f5f5"/>
      <rect id="Rectangle_204" data-name="Rectangle 204" width="48.484" height="1.292" transform="translate(115.149 7.087)" fill="#e0e0e0"/>
      <rect id="Rectangle_205" data-name="Rectangle 205" width="48.484" height="2.767" transform="translate(115.149 151.9)" fill="#ebebeb"/>
      <rect id="Rectangle_206" data-name="Rectangle 206" width="44.549" height="0.121" transform="translate(116.963 154.545)" fill="#ebebeb"/>
      <path id="Path_1829" data-name="Path 1829" d="M173.46,65.5h44.549V212.962h2.663V63.69H170.79V212.962h2.67Z" transform="translate(-56.497 -58.417)" fill="#ebebeb"/>
      <rect id="Rectangle_207" data-name="Rectangle 207" width="46.342" height="146.663" transform="translate(168.511 6.523)" fill="#fafafa"/>
      <path id="Path_1830" data-name="Path 1830" d="M281.453,65.75H278.67L262.04,212.413h2.784Z" transform="translate(-86.683 -59.227)" fill="#f5f5f5"/>
      <rect id="Rectangle_208" data-name="Rectangle 208" width="47.145" height="1.292" transform="translate(168.21 7.087)" fill="#e0e0e0"/>
      <rect id="Rectangle_209" data-name="Rectangle 209" width="47.145" height="2.767" transform="translate(168.21 151.9)" fill="#ebebeb"/>
      <rect id="Rectangle_210" data-name="Rectangle 210" width="44.549" height="0.121" transform="translate(170.024 154.545)" fill="#ebebeb"/>
      <path id="Path_1831" data-name="Path 1831" d="M252.75,65.5h44.542V212.962h2.67V63.69H250.08V212.962h2.67Z" transform="translate(-82.726 -58.417)" fill="#ebebeb"/>
      <rect id="Rectangle_211" data-name="Rectangle 211" width="47.681" height="146.663" transform="translate(221.572 6.523)" fill="#fafafa"/>
      <path id="Path_1832" data-name="Path 1832" d="M379.644,65.75h-15.2L347.81,212.413h15.2Z" transform="translate(-115.055 -59.227)" fill="#f5f5f5"/>
      <rect id="Rectangle_212" data-name="Rectangle 212" width="47.145" height="1.292" transform="translate(221.264 7.087)" fill="#e0e0e0"/>
      <rect id="Rectangle_213" data-name="Rectangle 213" width="47.145" height="2.767" transform="translate(221.264 151.9)" fill="#ebebeb"/>
      <path id="Path_1833" data-name="Path 1833" d="M332.033,65.5h44.549V212.962h2.67V63.69H329.37V212.962h2.663Z" transform="translate(-108.956 -58.417)" fill="#ebebeb"/>
      <rect id="Rectangle_214" data-name="Rectangle 214" width="44.549" height="0.121" transform="translate(223.078 154.545)" fill="#ebebeb"/>
      <rect id="Rectangle_215" data-name="Rectangle 215" width="20.698" height="32.456" transform="translate(77.969 119.449)" fill="#ebebeb"/>
      <path id="Path_1834" data-name="Path 1834" d="M135.2,244.38v8.143H122.45V244.38Z" transform="translate(-40.506 -129.469)" fill="#ebebeb"/>
      <rect id="Rectangle_216" data-name="Rectangle 216" width="2.65" height="2.403" transform="translate(97.342 123.054) rotate(180)" fill="#fafafa"/>
      <rect id="Rectangle_217" data-name="Rectangle 217" width="2.65" height="2.403" transform="translate(92.216 123.054) rotate(180)" fill="#fafafa"/>
      <rect id="Rectangle_218" data-name="Rectangle 218" width="2.65" height="2.403" transform="translate(87.083 123.054) rotate(180)" fill="#fafafa"/>
      <rect id="Rectangle_219" data-name="Rectangle 219" width="2.65" height="2.403" transform="translate(81.95 123.054) rotate(180)" fill="#f0f0f0"/>
      <rect id="Rectangle_220" data-name="Rectangle 220" width="2.65" height="2.403" transform="translate(97.342 127.416) rotate(180)" fill="#f0f0f0"/>
      <rect id="Rectangle_221" data-name="Rectangle 221" width="2.65" height="2.403" transform="translate(92.216 127.416) rotate(180)" fill="#f0f0f0"/>
      <rect id="Rectangle_222" data-name="Rectangle 222" width="2.65" height="2.403" transform="translate(87.083 127.416) rotate(180)" fill="#fafafa"/>
      <rect id="Rectangle_223" data-name="Rectangle 223" width="2.65" height="2.403" transform="translate(81.95 127.416) rotate(180)" fill="#fafafa"/>
      <rect id="Rectangle_224" data-name="Rectangle 224" width="2.65" height="2.403" transform="translate(97.342 131.785) rotate(180)" fill="#f0f0f0"/>
      <rect id="Rectangle_225" data-name="Rectangle 225" width="2.65" height="2.403" transform="translate(92.216 131.785) rotate(180)" fill="#fafafa"/>
      <rect id="Rectangle_226" data-name="Rectangle 226" width="2.65" height="2.403" transform="translate(87.083 131.785) rotate(180)" fill="#fafafa"/>
      <rect id="Rectangle_227" data-name="Rectangle 227" width="2.65" height="2.403" transform="translate(92.216 119.28) rotate(180)" fill="#fafafa"/>
      <rect id="Rectangle_228" data-name="Rectangle 228" width="2.65" height="2.403" transform="translate(87.083 119.28) rotate(180)" fill="#f0f0f0"/>
      <rect id="Rectangle_229" data-name="Rectangle 229" width="2.65" height="2.403" transform="translate(81.95 131.785) rotate(180)" fill="#f0f0f0"/>
      <rect id="Rectangle_230" data-name="Rectangle 230" width="2.65" height="2.403" transform="translate(97.342 136.154) rotate(180)" fill="#fafafa"/>
      <rect id="Rectangle_231" data-name="Rectangle 231" width="2.65" height="2.403" transform="translate(92.216 136.154) rotate(180)" fill="#f0f0f0"/>
      <rect id="Rectangle_232" data-name="Rectangle 232" width="2.65" height="2.403" transform="translate(87.083 136.154) rotate(180)" fill="#f0f0f0"/>
      <rect id="Rectangle_233" data-name="Rectangle 233" width="2.65" height="2.403" transform="translate(81.95 136.154) rotate(180)" fill="#fafafa"/>
      <rect id="Rectangle_234" data-name="Rectangle 234" width="2.65" height="2.403" transform="translate(97.342 140.523) rotate(180)" fill="#f0f0f0"/>
      <rect id="Rectangle_235" data-name="Rectangle 235" width="2.65" height="2.403" transform="translate(92.216 140.523) rotate(180)" fill="#fafafa"/>
      <rect id="Rectangle_236" data-name="Rectangle 236" width="2.65" height="2.403" transform="translate(87.083 140.523) rotate(180)" fill="#fafafa"/>
      <rect id="Rectangle_237" data-name="Rectangle 237" width="2.65" height="2.403" transform="translate(81.95 140.523) rotate(180)" fill="#f0f0f0"/>
      <rect id="Rectangle_238" data-name="Rectangle 238" width="2.65" height="2.403" transform="translate(97.342 144.885) rotate(180)" fill="#f0f0f0"/>
      <rect id="Rectangle_239" data-name="Rectangle 239" width="2.65" height="2.403" transform="translate(92.216 144.885) rotate(180)" fill="#fafafa"/>
      <rect id="Rectangle_240" data-name="Rectangle 240" width="2.65" height="2.403" transform="translate(87.083 144.885) rotate(180)" fill="#f0f0f0"/>
      <rect id="Rectangle_241" data-name="Rectangle 241" width="2.65" height="2.403" transform="translate(81.95 144.885) rotate(180)" fill="#fafafa"/>
      <rect id="Rectangle_242" data-name="Rectangle 242" width="2.65" height="2.403" transform="translate(97.342 149.254) rotate(180)" fill="#fafafa"/>
      <rect id="Rectangle_243" data-name="Rectangle 243" width="2.65" height="2.403" transform="translate(92.216 149.254) rotate(180)" fill="#fafafa"/>
      <rect id="Rectangle_244" data-name="Rectangle 244" width="2.65" height="2.403" transform="translate(87.083 149.254) rotate(180)" fill="#f0f0f0"/>
      <rect id="Rectangle_245" data-name="Rectangle 245" width="2.65" height="2.403" transform="translate(81.95 149.254) rotate(180)" fill="#f0f0f0"/>
      <rect id="Rectangle_246" data-name="Rectangle 246" width="18.544" height="20.63" transform="translate(225.942 131.269)" fill="#f0f0f0"/>
      <path id="Path_1835" data-name="Path 1835" d="M340.04,275.12h6.685v2.148H340.04Z" transform="translate(-112.485 -141.557)" fill="#e6e6e6"/>
      <path id="Path_1836" data-name="Path 1836" d="M340.04,281.99h6.685v2.154H340.04Z" transform="translate(-112.485 -144.258)" fill="#fafafa"/>
      <path id="Path_1837" data-name="Path 1837" d="M340.04,288.86h6.685v2.154H340.04Z" transform="translate(-112.485 -146.96)" fill="#e6e6e6"/>
      <path id="Path_1838" data-name="Path 1838" d="M340.04,295.73h6.685v2.154H340.04Z" transform="translate(-112.485 -149.661)" fill="#fafafa"/>
      <path id="Path_1839" data-name="Path 1839" d="M352.93,275.12h6.685v2.148H352.93Z" transform="translate(-116.749 -141.557)" fill="#fafafa"/>
      <path id="Path_1840" data-name="Path 1840" d="M352.93,281.99h6.685v2.154H352.93Z" transform="translate(-116.749 -144.258)" fill="#fafafa"/>
      <path id="Path_1841" data-name="Path 1841" d="M352.93,288.86h6.685v2.154H352.93Z" transform="translate(-116.749 -146.96)" fill="#e6e6e6"/>
      <path id="Path_1842" data-name="Path 1842" d="M352.93,295.73h6.685v2.154H352.93Z" transform="translate(-116.749 -149.661)" fill="#fafafa"/>
      <rect id="Rectangle_247" data-name="Rectangle 247" width="16.85" height="12.821" transform="translate(138.277 139.085)" fill="#f0f0f0"/>
      <rect id="Rectangle_248" data-name="Rectangle 248" width="2.155" height="1.954" transform="translate(154.05 142.64) rotate(180)" fill="#fafafa"/>
      <rect id="Rectangle_249" data-name="Rectangle 249" width="2.155" height="1.954" transform="translate(149.874 142.64) rotate(180)" fill="#fafafa"/>
      <rect id="Rectangle_250" data-name="Rectangle 250" width="2.155" height="1.954" transform="translate(145.692 142.64) rotate(180)" fill="#fafafa"/>
      <rect id="Rectangle_251" data-name="Rectangle 251" width="2.155" height="1.954" transform="translate(141.516 142.64) rotate(180)" fill="#fafafa"/>
      <rect id="Rectangle_252" data-name="Rectangle 252" width="2.155" height="1.954" transform="translate(154.05 146.19) rotate(180)" fill="#fafafa"/>
      <rect id="Rectangle_253" data-name="Rectangle 253" width="2.155" height="1.954" transform="translate(149.874 146.19) rotate(180)" fill="#fafafa"/>
      <rect id="Rectangle_254" data-name="Rectangle 254" width="2.155" height="1.954" transform="translate(145.692 146.19) rotate(180)" fill="#fafafa"/>
      <rect id="Rectangle_255" data-name="Rectangle 255" width="2.155" height="1.954" transform="translate(141.516 146.19) rotate(180)" fill="#e6e6e6"/>
      <rect id="Rectangle_256" data-name="Rectangle 256" width="2.155" height="1.954" transform="translate(154.05 149.746) rotate(180)" fill="#e6e6e6"/>
      <rect id="Rectangle_257" data-name="Rectangle 257" width="2.155" height="1.954" transform="translate(149.874 149.746) rotate(180)" fill="#e6e6e6"/>
      <rect id="Rectangle_258" data-name="Rectangle 258" width="2.155" height="1.954" transform="translate(145.692 149.746) rotate(180)" fill="#fafafa"/>
      <rect id="Rectangle_259" data-name="Rectangle 259" width="2.155" height="1.954" transform="translate(141.516 149.746) rotate(180)" fill="#e6e6e6"/>
      <rect id="Rectangle_260" data-name="Rectangle 260" width="16.85" height="22.299" transform="translate(119.144 129.607)" fill="#f0f0f0"/>
      <rect id="Rectangle_261" data-name="Rectangle 261" width="6.337" height="5.51" transform="translate(128.58 130.584)" fill="#fafafa"/>
      <rect id="Rectangle_262" data-name="Rectangle 262" width="6.337" height="5.51" transform="translate(120.222 130.584)" fill="#fafafa"/>
      <rect id="Rectangle_263" data-name="Rectangle 263" width="6.337" height="5.51" transform="translate(128.58 137.689)" fill="#fafafa"/>
      <rect id="Rectangle_264" data-name="Rectangle 264" width="6.337" height="5.51" transform="translate(120.222 137.689)" fill="#fafafa"/>
      <rect id="Rectangle_265" data-name="Rectangle 265" width="6.337" height="5.51" transform="translate(128.58 144.794)" fill="#fafafa"/>
      <rect id="Rectangle_266" data-name="Rectangle 266" width="6.337" height="5.51" transform="translate(120.222 144.794)" fill="#fafafa"/>
    </g>
    <g id="freepik--Shadow--inject-3" transform="translate(37.549 267.322)">
      <ellipse id="freepik--path--inject-3" cx="129.751" cy="6.869" rx="129.751" ry="6.869" fill="#f5f5f5"/>
    </g>
    <g id="freepik--Sheet--inject-3" transform="translate(177.111 69.933)">
      <path id="Path_1843" data-name="Path 1843" d="M385.056,79.61V213.246l-17.734,16.079H264.66V79.61Z" transform="translate(-264.66 -79.61)" fill="#93b4e5"/>
      <path id="Path_1844" data-name="Path 1844" d="M385.056,79.61V213.246l-17.734,16.079H264.66V79.61Z" transform="translate(-264.66 -79.61)" fill="#fff" opacity="0.8"/>
      <path id="Path_1845" data-name="Path 1845" d="M418.07,316.236V300.63H435.8l-17.386,15.764" transform="translate(-315.408 -166.521)" opacity="0.2"/>
      <path id="Path_1846" data-name="Path 1846" d="M315.456,98.928H282.25a1.684,1.684,0,0,1-1.76-1.6h0A1.523,1.523,0,0,1,281,96.2a1.856,1.856,0,0,1,1.247-.47h33.206a1.69,1.69,0,0,1,1.76,1.6h0A1.684,1.684,0,0,1,315.456,98.928Z" transform="translate(-269.897 -85.949)" opacity="0.1"/>
      <path id="Path_1847" data-name="Path 1847" d="M382.3,120.268H302.25A1.856,1.856,0,0,1,301,119.8a1.523,1.523,0,0,1-.513-1.132h0a1.684,1.684,0,0,1,1.76-1.6H382.3a1.684,1.684,0,0,1,1.76,1.6h0a1.69,1.69,0,0,1-1.76,1.6Z" transform="translate(-276.513 -94.34)" opacity="0.1"/>
      <path id="Path_1848" data-name="Path 1848" d="M375.684,130.638H282.25a1.684,1.684,0,0,1-1.76-1.6h0A1.523,1.523,0,0,1,281,127.91a1.856,1.856,0,0,1,1.247-.47h93.434a1.69,1.69,0,0,1,1.76,1.6h0A1.684,1.684,0,0,1,375.684,130.638Z" transform="translate(-269.897 -98.418)" opacity="0.1"/>
      <path id="Path_1849" data-name="Path 1849" d="M375.684,142.358H282.25a1.856,1.856,0,0,1-1.247-.47,1.523,1.523,0,0,1-.513-1.132h0a1.684,1.684,0,0,1,1.76-1.6h93.434a1.684,1.684,0,0,1,1.76,1.6h0A1.69,1.69,0,0,1,375.684,142.358Z" transform="translate(-269.897 -103.027)" opacity="0.1"/>
      <path id="Path_1850" data-name="Path 1850" d="M375.684,154.072H282.25a1.684,1.684,0,0,1-1.76-1.6h0a1.684,1.684,0,0,1,1.76-1.6h93.434a1.684,1.684,0,0,1,1.76,1.6h0A1.684,1.684,0,0,1,375.684,154.072Z" transform="translate(-269.897 -107.635)" opacity="0.1"/>
      <path id="Path_1851" data-name="Path 1851" d="M375.684,165.792H282.25a1.684,1.684,0,0,1-1.76-1.6h0a1.518,1.518,0,0,1,.514-1.13,1.849,1.849,0,0,1,1.246-.466h93.434a1.684,1.684,0,0,1,1.76,1.6h0A1.684,1.684,0,0,1,375.684,165.792Z" transform="translate(-269.897 -112.244)" opacity="0.1"/>
      <path id="Path_1852" data-name="Path 1852" d="M375.684,177.508H282.25a1.684,1.684,0,0,1-1.76-1.6h0A1.523,1.523,0,0,1,281,174.78a1.856,1.856,0,0,1,1.247-.47h93.434a1.69,1.69,0,0,1,1.76,1.6h0A1.684,1.684,0,0,1,375.684,177.508Z" transform="translate(-269.897 -116.849)" opacity="0.1"/>
      <rect id="Rectangle_267" data-name="Rectangle 267" width="96.96" height="3.198" rx="1.599" transform="translate(10.593 64.573)" opacity="0.1"/>
      <path id="Path_1853" data-name="Path 1853" d="M375.684,200.932H282.25a1.684,1.684,0,0,1-1.76-1.6h0a1.684,1.684,0,0,1,1.76-1.6h93.434a1.684,1.684,0,0,1,1.76,1.6h0a1.684,1.684,0,0,1-1.76,1.6Z" transform="translate(-269.897 -126.062)" opacity="0.1"/>
      <path id="Path_1854" data-name="Path 1854" d="M375.684,212.662H282.25a1.684,1.684,0,0,1-1.76-1.6h0a1.518,1.518,0,0,1,.514-1.13,1.849,1.849,0,0,1,1.246-.466h93.434a1.684,1.684,0,0,1,1.76,1.6h0A1.684,1.684,0,0,1,375.684,212.662Z" transform="translate(-269.897 -130.674)" opacity="0.1"/>
      <path id="Path_1855" data-name="Path 1855" d="M375.684,224.378H282.25a1.684,1.684,0,0,1-1.76-1.6h0A1.523,1.523,0,0,1,281,221.65a1.855,1.855,0,0,1,1.247-.47h93.434a1.69,1.69,0,0,1,1.76,1.6h0a1.684,1.684,0,0,1-1.76,1.6Z" transform="translate(-269.897 -135.279)" opacity="0.1"/>
      <path id="Path_1856" data-name="Path 1856" d="M375.684,236.1H282.25a1.855,1.855,0,0,1-1.247-.47,1.523,1.523,0,0,1-.513-1.132h0a1.684,1.684,0,0,1,1.76-1.6h93.434a1.684,1.684,0,0,1,1.76,1.6h0A1.69,1.69,0,0,1,375.684,236.1Z" transform="translate(-269.897 -139.888)" opacity="0.1"/>
      <path id="Path_1857" data-name="Path 1857" d="M322.148,247.812h-39.9a1.684,1.684,0,0,1-1.76-1.6h0a1.684,1.684,0,0,1,1.76-1.6h39.9a1.684,1.684,0,0,1,1.76,1.6h0a1.684,1.684,0,0,1-1.76,1.6Z" transform="translate(-269.897 -144.496)" opacity="0.1"/>
      <path id="Path_1858" data-name="Path 1858" d="M367.493,128.639l-.127-.1c-.361-.249-.569-.164-.736-.643-.12-.346,0-.734-.141-1.092a14.756,14.756,0,0,0-1.091-1.784l-1.646-2.688a3,3,0,0,0-3.861-1L344.733,129c-.06.461-.482.777-.569,1.214a.717.717,0,0,0,.254.716.834.834,0,0,1-.468-.152c-.9-.455-1.144-.819-2.075-.358-.4.194-.8.4-1.191.607l-4.015,2.033-12.581,6.353-14.722,7.451-12.266,6.2a39.5,39.5,0,0,0-5.193,2.658c.415.194.489.491.12.783l-.669.552c0,.152.241.152.395.091l.83-.322a8.165,8.165,0,0,1-2.054,1.693,17.734,17.734,0,0,1-4.2,1.565l.709-.807c.054-.067.12-.152.074-.231s-.134-.085-.214-.091a1.573,1.573,0,0,1-.97-.237c-2.289,1.214-4.684,2.366-7.013,3.544a2.457,2.457,0,0,0-1.1,3.5L293.1,190.633a2.8,2.8,0,0,0,1.7,1.223,3.09,3.09,0,0,0,2.155-.227l4.022-2.057c0-.431.375-.91.094-1.3a.329.329,0,0,1-.074-.164c0-.079.08-.14.154-.182a3.072,3.072,0,0,1,1.372-.4c.167,0,.388.067.361.212,0-.133.863-.413,1-.455.067.328-.181.68.241.746s1.064-.607,1.338-.728l4.015-2.033,12.715-6.414,13.946-7.045,9.268-4.684c.335-.176.729-.382,1.051-.528a2.742,2.742,0,0,1,.857-1.468c.669-.419,1.727.042,2.282-.552.107-.115.174-.255.268-.376a2.208,2.208,0,0,1,.669-.479,1.114,1.114,0,0,1,.562-.2c.2,0,.415.152.388.334a16.138,16.138,0,0,0,3.841-1.76c.442-.225,4.316-1.875,4.3-2.136-.054-.807.489-1.5.462-2.33,0-.158-.341-1.214-.187-1.292-3.48,1.881-7.094,3.592-10.64,5.376a3.054,3.054,0,0,0-.669.328s-.033.055-.047.085l-.1.2v.049a10.807,10.807,0,0,1-.509,1.214c0,.055-.756.9-.816.7-.294-.977-.669-1.129-1.492-.728l-1.178.607-3.741,1.887-12.6,6.371-14.85,7.5-12.373,6.25-5.186,2.615q-1.553-2.548-3.125-5.091l-2.008-3.271a3.7,3.7,0,0,0-.883-1.214c-.288-.194-.776-.146-1.031-.322-.622-.431-1.071-1.214-1.66-1.717a2.52,2.52,0,0,1-.843-1.923c.2.073.4.152.6.206a1.727,1.727,0,0,1,.067-1.129c-2.008-3.064-3.855-6.268-5.775-9.4l-.127-.2,4.684-2.366,3.42-1.729a12.261,12.261,0,0,0,2.008-1c.435-.34.877-.765,1.338-1.129a5.006,5.006,0,0,1,1-.534l1.265-.558a.511.511,0,0,1,.214-.061.96.96,0,0,1,.221.049c.669.127,2.329-1,2.931-1.3l3.895-1.966,11.751-5.94,14.642-7.391,14.655-7.409,11.791-5.952,6.023-3.034.281-.14,6.511,10.6a3.971,3.971,0,0,0,1.84,1.65c.268.079.569.249.535.5s-.435.455-.341.71.609.158.729.388-.207.607-.167.922a3.539,3.539,0,0,0,.609,1.05l1.894,3.088c1.057,1.711,2.108,3.428,3.172,5.158l-11.577,5.849a.532.532,0,0,1,.141.152l.06.14a5.2,5.2,0,0,1,.669.267.514.514,0,0,1,.294.473.53.53,0,0,1-.308.461l-.709.364a.739.739,0,0,1-.609.576,1.637,1.637,0,0,1-.248,0,.652.652,0,0,1-.5.091.553.553,0,0,1-.415-.674.8.8,0,0,1,.107-.176.5.5,0,0,1,.04-.564h-.214a1.346,1.346,0,0,1-.341-.091,3.133,3.133,0,0,0-1.338,1.432.154.154,0,0,0-.04.115c0,.085.147.091.234.127.2.085.154.352.054.528s-.221.4-.087.558a1.217,1.217,0,0,0,.167.146c.288.3-.154,1.159.549.807a.7.7,0,0,1,.087-.552.9.9,0,0,1,.515-.346,9.2,9.2,0,0,1,1.586-.206l13.953-7.075a2.457,2.457,0,0,0,1.1-3.5l-.08-.127-6.3-10.261-3.64-5.934c-.355-.564-.669-1.153-1.057-1.711A2.163,2.163,0,0,0,367.493,128.639Z" transform="translate(-268.893 -95.892)" fill="#93b4e5"/>
      <path id="Path_1859" data-name="Path 1859" d="M311.879,187.479c-.462-.51-.321-.522-.408-1.068v-.036l-.054-.055-.08-.085c-.315.127-.629.267-.944.425l-6.163,3.113,2.483,4.035c-.348-.558.883-.394.93-.4a1.838,1.838,0,0,1,.4-.061.534.534,0,0,1,.328.2,1.7,1.7,0,0,1,.214,1.347c-.074.607.281,1.214-.1,1.82.328.485,3.292,5.376,3.306,5.37l6.163-3.113c.355-.182,1.2-.5,1.405-.825s-.12-.825.248-.977a1.081,1.081,0,0,1,.85.073,6.3,6.3,0,0,0,1.2-8.2,7.8,7.8,0,0,0-9.115-3.192c-.241.091.08,1.068-.5,1.177a1.484,1.484,0,0,1,.462-.5m3.841,10.157-2.871,1.45c-.234-.382-.462-.765-.7-1.135.3.461-.529.316-.7.212-.422-.255-.535-.989-.549-1.4a3.483,3.483,0,0,0-.669-1.99q-1.011-1.656-2.008-3.313l2.871-1.45c2.677-1.359,5.354-.795,6.8,1.559S319.046,195.343,316.349,196.684Z" transform="translate(-277.75 -121.207)" fill="#93b4e5"/>
      <path id="Path_1860" data-name="Path 1860" d="M341.1,171.757a1.377,1.377,0,0,1,.12.922c-.033.17-.335.607-.294.716.107.243.214.485.315.728a.4.4,0,0,0,.074.109.338.338,0,0,0,.174.049c1.064.085,1.017.182,1.084,1,.06.7.723,1.1,1.1,1.705a4.123,4.123,0,0,1-.536,5.107,5.245,5.245,0,0,1-5.487,1.252.694.694,0,0,1-.08.061.731.731,0,0,1-.455.049A1.909,1.909,0,0,1,335.7,182.1a.358.358,0,0,1,0-.146,4.573,4.573,0,0,1-.5-.68,3.95,3.95,0,0,1-.547-3.4,4.4,4.4,0,0,1,2.373-2.672,5.291,5.291,0,0,1,2.757-.57l-.054-.073c-.576-.692,1.5-.971.562-1.438-.395-.194-.328-1.074-.428-1.432a9.9,9.9,0,0,0-4.33,1.086c-4.283,2.166-5.762,6.456-3.513,10.115a7.724,7.724,0,0,0,4.383,3.343,4.246,4.246,0,0,0,1.392.291c.549-.042.281,0,.515-.3s.094-.425.448-.74.77-.5.843-.989c0,.218.268.376.268.607v.194a.4.4,0,0,0,.114.212c.228.279.609.607.616.928a8.444,8.444,0,0,0,2.771-.922c4.263-2.154,5.775-6.438,3.513-10.109A7.674,7.674,0,0,0,341.1,171.757Z" transform="translate(-286.599 -115.818)" fill="#93b4e5"/>
      <path id="Path_1861" data-name="Path 1861" d="M361.942,156.85l4.591,7.469L355.2,160.254l-2.6,1.317c1.753,2.852,3.614,5.673,5.26,8.58.114-.316.381-.376.7-.419.6-.073.582.2.91.74.04.067.087.133.161.146s.221-.1.341-.085a.182.182,0,0,1,.134.249,1.25,1.25,0,0,1-.167.285c-.194.334.127.546.087.849,0,.158-.582.8-.515.91l.669,1.044,3.105-1.565-.83-1.347H362.3c-.9.109-.5-.965-.7-1.408a15.891,15.891,0,0,0-1.1-1.82l-1.827-2.919,9.215,3.289a1.573,1.573,0,0,1,.094-.71c.074-.127.669-.364.669-.485a1.461,1.461,0,0,0,.562,1.013c.355.285.355.243.288.746l.549.2,2.583-1.3-7.562-12.3Z" transform="translate(-293.75 -109.358)" fill="#93b4e5"/>
      <path id="Path_1862" data-name="Path 1862" d="M385.318,157.7l-1.753-2.846,6.3-3.186-1.338-2.215-6.3,3.186-1.64-2.676,4.256-2.148a1.976,1.976,0,0,1,.669-.5.658.658,0,0,1,.428-.042l1.8-.9s-1.278-2.069-1.4-2.288c-.616.255,0,.959-.622,1.3.127.121.315.552,0,.607-.181,0-.315-.206-.5-.188s-.187.1-.281.073a.189.189,0,0,1-.127-.1,2.489,2.489,0,0,0-.328-.516c-.422-.37-4.27,1.954-4.8,2.227l-3.58,1.82,7.555,12.3,3.018-1.523.06-.073c.221-.255.435-.516.669-.752a.657.657,0,0,1,.723-.079.45.45,0,0,1,.141.1l5.9-2.979-1.405-2.288Z" transform="translate(-301.528 -104.961)" fill="#93b4e5"/>
    </g>
    <g id="freepik--Plant--inject-3" transform="translate(249.182 192.533)">
      <path id="Path_1863" data-name="Path 1863" d="M392.128,342.672s-4.4-8.7.622-17.287,6.491-10.606,3.286-12.36-4.684,6.863-4.684,6.863a17.868,17.868,0,0,1-.475-12.135c2.2-6.2,3.634-16.322.589-17.408s-.582,12.615-3.226,17.287a37.144,37.144,0,0,1-2.59-10.188c-.361-4.988.207-12.949-2.2-14.993s-3.942-.607-1.579,10.376a105.172,105.172,0,0,1,2.349,19.957s-5.226-14.441-8.7-14.86-3.5,4.247-.5,8.307,8.76,11.316,9.7,15.078c0,0-5.728-10.861-10.888-7.536s4.49,9.9,8.787,12.269,7.288,17.232,7.288,17.232Z" transform="translate(-372.358 -281.663)" fill="#93b4e5"/>
      <path id="Path_1864" data-name="Path 1864" d="M392.128,342.672s-4.4-8.7.622-17.287,6.491-10.606,3.286-12.36-4.684,6.863-4.684,6.863a17.868,17.868,0,0,1-.475-12.135c2.2-6.2,3.634-16.322.589-17.408s-.582,12.615-3.226,17.287a37.144,37.144,0,0,1-2.59-10.188c-.361-4.988.207-12.949-2.2-14.993s-3.942-.607-1.579,10.376a105.172,105.172,0,0,1,2.349,19.957s-5.226-14.441-8.7-14.86-3.5,4.247-.5,8.307,8.76,11.316,9.7,15.078c0,0-5.728-10.861-10.888-7.536s4.49,9.9,8.787,12.269,7.288,17.232,7.288,17.232Z" transform="translate(-372.358 -281.663)" opacity="0.2"/>
      <path id="Path_1865" data-name="Path 1865" d="M393.751,348.477s4.29-8.768-.85-17.281-6.632-10.515-3.446-12.318,4.765,6.8,4.765,6.8a17.681,17.681,0,0,0,.315-12.135c-2.309-6.171-3.848-16.274-.816-17.4s.75,12.609,3.453,17.238a36.874,36.874,0,0,0,2.449-10.218c.3-4.994-.375-12.949,2.008-15.024s3.942-.68,1.72,10.358a105.072,105.072,0,0,0-2.081,19.981s5.032-14.508,8.532-14.975,3.553,4.2.609,8.3-8.633,11.438-9.536,15.169c0,0,5.588-10.922,10.788-7.676s-4.357,9.951-8.619,12.378-7.08,17.342-7.08,17.342Z" transform="translate(-377.461 -283.894)" fill="#93b4e5"/>
      <path id="Path_1866" data-name="Path 1866" d="M408.741,377.8h-35.4l2.864,22.972h29.672Z" transform="translate(-372.683 -319.467)" fill="#263238"/>
    </g>
    <g id="freepik--speech-bubble--inject-3" transform="translate(77.393 106.424)">
      <path id="Path_1867" data-name="Path 1867" d="M142.4,139.75H119.043a3.246,3.246,0,0,0-3.393,3.076V163.42a3.246,3.246,0,0,0,3.393,3.076h7.475l-5.032,6.2,8.7-6.2H142.4a3.246,3.246,0,0,0,3.393-3.076V142.826a3.245,3.245,0,0,0-3.386-3.076Z" transform="translate(-115.65 -139.75)" fill="#93b4e5"/>
      <path id="Path_1868" data-name="Path 1868" d="M142.4,139.75H119.043a3.246,3.246,0,0,0-3.393,3.076V163.42a3.246,3.246,0,0,0,3.393,3.076h7.475l-5.032,6.2,8.7-6.2H142.4a3.246,3.246,0,0,0,3.393-3.076V142.826a3.245,3.245,0,0,0-3.386-3.076Z" transform="translate(-115.65 -139.75)" fill="#fff" opacity="0.6"/>
      <ellipse id="Ellipse_35" data-name="Ellipse 35" cx="10.607" cy="9.617" rx="10.607" ry="9.617" transform="translate(4.47 3.756)" fill="#93b4e5"/>
      <path id="Path_1976" data-name="Path 1976" d="M8.112.01c4.579.1,8.376,4.241,8.48,9.239s-3.522,8.965-8.1,8.86S.115,13.868.011,8.87,3.533-.095,8.112.01Z" transform="translate(4.35 19.366) rotate(-76.72)" opacity="0.2"/>
      <path id="Path_1869" data-name="Path 1869" d="M134.111,163.187a.992.992,0,0,1-.669-.237l-3.861-3.428a.791.791,0,0,1-.02-1.2,1,1,0,0,1,1.318-.018l3.165,2.809,5.474-5.54a1,1,0,0,1,1.28-.035.789.789,0,0,1,.105,1.157l-6.123,6.2a.966.966,0,0,1-.669.279Z" transform="translate(-120.164 -145.876)" fill="#fff"/>
    </g>
    <g id="freepik--Character--inject-3" transform="translate(34.639 119.158)">
      <path id="Path_1870" data-name="Path 1870" d="M91.226,379.027l19.28-1.723V357.59h7.642V377.3l19.36,1.729a3.544,3.544,0,0,1,3.386,3.386v2.627H87.84v-2.627A3.544,3.544,0,0,1,91.226,379.027Z" transform="translate(-63.697 -238.144)" fill="#263238"/>
      <path id="Path_1871" data-name="Path 1871" d="M91.226,379.027l19.28-1.723V357.59h7.642V377.3l19.36,1.729a3.544,3.544,0,0,1,3.386,3.386v2.627H87.84v-2.627A3.544,3.544,0,0,1,91.226,379.027Z" transform="translate(-63.697 -238.144)" fill="#fff" opacity="0.1"/>
      <ellipse id="Ellipse_37" data-name="Ellipse 37" cx="4.999" cy="4.533" rx="4.999" ry="4.533" transform="translate(70.158 145.616)" fill="#263238"/>
      <ellipse id="Ellipse_38" data-name="Ellipse 38" cx="4.999" cy="4.533" rx="4.999" ry="4.533" transform="translate(21.185 145.616)" fill="#263238"/>
      <path id="Path_1872" data-name="Path 1872" d="M2.764,0H7.529a2.644,2.644,0,0,1,2.764,2.506v19.38H0V2.506A2.644,2.644,0,0,1,2.764,0Z" transform="translate(55.763 124.724) rotate(180)" fill="#263238"/>
      <path id="Path_1873" data-name="Path 1873" d="M2.764,0H7.529a2.644,2.644,0,0,1,2.764,2.506v19.38H0V2.506A2.644,2.644,0,0,1,2.764,0Z" transform="translate(55.763 124.724) rotate(180)" fill="#fff" opacity="0.2"/>
      <path id="Path_1874" data-name="Path 1874" d="M82.962,267.62S88.69,300.01,100,305.61H88.5s-11.376-11.043-14.8-37.99Z" transform="translate(-59.019 -202.766)" fill="#263238"/>
      <path id="Path_1875" data-name="Path 1875" d="M82.962,267.62S88.69,300.01,100,305.61H88.5s-11.376-11.043-14.8-37.99Z" transform="translate(-59.019 -202.766)" fill="#fff" opacity="0.1"/>
      <path id="Path_1876" data-name="Path 1876" d="M93.346,322.68h44.783a3.2,3.2,0,0,1,3.346,3.034v4.059H90v-4.059a3.2,3.2,0,0,1,3.346-3.034Z" transform="translate(-64.411 -224.417)" fill="#93b4e5"/>
      <rect id="Rectangle_268" data-name="Rectangle 268" width="55.764" height="3.544" rx="1.772" transform="translate(23.421 101.807)" fill="#263238"/>
      <rect id="Rectangle_269" data-name="Rectangle 269" width="55.764" height="3.544" rx="1.772" transform="translate(23.421 101.807)" fill="#fff" opacity="0.6"/>
      <path id="Path_1877" data-name="Path 1877" d="M65.084,262.951h18.4c5.394,0,8.894-3.92,7.823-8.756l-1.432-6.456c-1.071-4.854-6.311-8.75-11.7-8.75h-18.4c-5.394,0-8.894,3.92-7.823,8.75l1.432,6.456C54.458,259.02,59.691,262.951,65.084,262.951Z" transform="translate(-51.762 -191.508)" fill="#93b4e5"/>
      <path id="Path_1878" data-name="Path 1878" d="M212.595,360.8l-4.216,1.5-3.031-5.182-2.757-4.715,4.671-2.536,2.824,5.783Z" transform="translate(-101.656 -235.109)" fill="#e4897b"/>
      <path id="Path_1879" data-name="Path 1879" d="M210.085,355.653l-4.738,1.468-2.757-4.715,4.671-2.536Z" transform="translate(-101.656 -235.109)" opacity="0.2"/>
      <path id="Path_1880" data-name="Path 1880" d="M173.086,322.705l-5.735,2.791s-21.675-34.556-25.008-34.264-34.952,18.555-44.6,11.808-.261-27.062-.261-27.062,19.949-5.17,22.084-1.214A28.378,28.378,0,0,1,121,278.4c.422,1.244.743,2.294.743,2.294h0c.609-.225,20.31-7.548,29.1-3.641C159.822,281.074,173.086,322.705,173.086,322.705Z" transform="translate(-65.534 -204.989)" fill="#263238"/>
      <path id="Path_1881" data-name="Path 1881" d="M173.086,322.705l-5.735,2.791s-21.675-34.556-25.008-34.264-34.952,18.555-44.6,11.808-.261-27.062-.261-27.062,19.949-5.17,22.084-1.214A28.378,28.378,0,0,1,121,278.4c.422,1.244.743,2.294.743,2.294h0c.609-.225,20.31-7.548,29.1-3.641C159.822,281.074,173.086,322.705,173.086,322.705Z" transform="translate(-65.534 -204.989)" fill="#fff" opacity="0.3"/>
      <path id="Path_1882" data-name="Path 1882" d="M163.68,393.579l-4.5-.467-.027-5.752-.007-5.279,5.441-.231-.482,6.207Z" transform="translate(-87.286 -247.684)" fill="#e4897b"/>
      <path id="Path_1883" data-name="Path 1883" d="M164.092,388.2l-4.952-.716v-5.334l5.441-.261Z" transform="translate(-87.283 -247.7)" opacity="0.2"/>
      <path id="Path_1884" data-name="Path 1884" d="M199.72,354.041l8.392-3.811.877,3.228-6.357,2.973Z" transform="translate(-100.707 -235.25)" fill="#93b4e5"/>
      <path id="Path_1885" data-name="Path 1885" d="M122.16,313.1s1.379-.14,22.586-3.7c0,0,.482,24.586,1.486,42.917l6.531.188s9.369-40.654,8.265-46.819-9.161-6.972-9.161-6.972S137.873,308.594,122.16,313.1Z" transform="translate(-75.05 -214.991)" fill="#263238"/>
      <path id="Path_1886" data-name="Path 1886" d="M122.16,313.1s1.379-.14,22.586-3.7c0,0,.482,24.586,1.486,42.917l6.531.188s9.369-40.654,8.265-46.819-9.161-6.972-9.161-6.972S137.873,308.594,122.16,313.1Z" transform="translate(-75.05 -214.991)" fill="#fff" opacity="0.4"/>
      <path id="Path_1887" data-name="Path 1887" d="M122.16,313.1s1.379-.14,22.586-3.7c0,0,.482,24.586,1.486,42.917l6.531.188s9.369-40.654,8.265-46.819-9.161-6.972-9.161-6.972S137.873,308.594,122.16,313.1Z" transform="translate(-75.05 -214.991)" opacity="0.3"/>
      <path id="Path_1888" data-name="Path 1888" d="M156.34,384.228l8.907-.188-1.218,3.325-7.227.061Z" transform="translate(-86.356 -248.545)" fill="#93b4e5"/>
      <path id="Path_1889" data-name="Path 1889" d="M130.087,284.044l-11.557,3.732a72.849,72.849,0,0,1,10.814-6.025C129.766,282.994,130.087,284.044,130.087,284.044Z" transform="translate(-73.849 -208.322)" opacity="0.3"/>
      <path id="Path_1890" data-name="Path 1890" d="M97.51,272.626l.428,2.906,21.662-4.169-.5-3.434Z" transform="translate(-66.895 -202.888)" fill="#263238"/>
      <path id="Path_1891" data-name="Path 1891" d="M97.51,272.626l.428,2.906,21.662-4.169-.5-3.434Z" transform="translate(-66.895 -202.888)" opacity="0.2"/>
      <path id="Path_1977" data-name="Path 1977" d="M0,0,1.094.018,1.188,5.1.093,5.084Z" transform="translate(36.713 67.808) rotate(-10.51)" fill="#263238"/>
      <path id="Path_1978" data-name="Path 1978" d="M0,0,4.823.1,4.9,3.445l-4.823-.1Z" transform="matrix(0.976, -0.22, 0.22, 0.976, 42.512, 67.331)" fill="#fff"/>
      <path id="Path_1979" data-name="Path 1979" d="M0,0,1.09.018l.092,5.065L.092,5.065Z" transform="matrix(0.984, -0.181, 0.181, 0.984, 49.201, 64.516)" fill="#263238"/>
      <path id="Path_1980" data-name="Path 1980" d="M0,0,1.094.018,1.188,5.1.093,5.084Z" transform="translate(36.713 67.808) rotate(-10.51)" fill="#fff" opacity="0.3"/>
      <path id="Path_1981" data-name="Path 1981" d="M0,0,1.09.018l.092,5.065L.092,5.065Z" transform="matrix(0.984, -0.181, 0.181, 0.984, 49.201, 64.516)" fill="#fff" opacity="0.3"/>
      <path id="Path_1892" data-name="Path 1892" d="M223.652,375.075a6.551,6.551,0,0,0-2.175-.224h0s-2.724-1.032-6.023-5.94l-2.811.334a2.252,2.252,0,0,0-1.941,1.669,1.1,1.1,0,0,0,0,.364,13.22,13.22,0,0,0,.5,1.82,48.876,48.876,0,0,0,2.55,5.783l.455-.17-1.452-3.677c-.482-1.256,1.2-.194,2.088,1.019s2.155,2.391,5.16,1.359C223.491,376.173,224.876,375.518,223.652,375.075Z" transform="translate(-104.335 -242.596)" fill="#263238"/>
      <path id="Path_1893" data-name="Path 1893" d="M214.745,366.76s4.51,6.213,6.725,7.245c0,0-2.483,1.82-5.8-1.1-4.276-3.756-4.992-2.47-4.992-2.47a10.692,10.692,0,0,1,.114-2.2C211.138,366.8,214.745,366.76,214.745,366.76Z" transform="translate(-104.328 -241.75)" fill="#e4897b"/>
      <path id="Path_1894" data-name="Path 1894" d="M170.24,407.907a6.5,6.5,0,0,0-2.075-.667h0s-2.376-1.584-4.283-7.057l-2.817-.279a2.362,2.362,0,0,0-2.322,1.214,1.077,1.077,0,0,0-.12.346,12.371,12.371,0,0,0,0,1.863,46.253,46.253,0,0,0,.964,6.165l.489-.067-.435-3.9c-.141-1.323,1.218.073,1.767,1.444s1.466,2.785,4.651,2.427C169.778,408.945,171.291,408.605,170.24,407.907Z" transform="translate(-87.1 -254.78)" fill="#263238"/>
      <path id="Path_1895" data-name="Path 1895" d="M163.569,397.867s2.757,7.008,4.638,8.495c0,0-2.884,1.214-5.354-2.318-3.179-4.569-4.2-3.471-4.2-3.471a10.9,10.9,0,0,1,.669-2.112C160.029,397.127,163.569,397.867,163.569,397.867Z" transform="translate(-87.121 -253.902)" fill="#e4897b"/>
      <path id="Path_1896" data-name="Path 1896" d="M84.589,190.26l-5.661,1.032a2.018,2.018,0,0,1-1.619.358c-1.686-.607-4.116-2.385-4.423-3.034-.455-.916,0-3.6,1.191-4.09s5.293,4,5.293,4l6.083-1.244Z" transform="translate(-58.692 -170.077)" fill="#e4897b"/>
      <path id="Path_1897" data-name="Path 1897" d="M106.713,208.246s-.515-16.632-2.637-17.342-18.068,1.274-18.068,1.274l-.388-3.8s18.557-2.591,22.151-1.056,4.778,26.322,4.122,31.1Z" transform="translate(-62.962 -171.001)" fill="#93b4e5"/>
      <path id="Path_1898" data-name="Path 1898" d="M106.713,208.246s-.515-16.632-2.637-17.342-18.068,1.274-18.068,1.274l-.388-3.8s18.557-2.591,22.151-1.056,4.778,26.322,4.122,31.1Z" transform="translate(-62.962 -171.001)" fill="#fff" opacity="0.6"/>
      <path id="Path_1899" data-name="Path 1899" d="M86.061,193.2l-1.111-4.175,1.593-.522,1.01,4.824Z" transform="translate(-62.741 -171.654)" fill="#93b4e5"/>
      <path id="Path_1900" data-name="Path 1900" d="M86.061,193.2l-1.111-4.175,1.593-.522,1.01,4.824Z" transform="translate(-62.741 -171.654)" fill="#fff" opacity="0.7"/>
      <path id="Path_1901" data-name="Path 1901" d="M105.753,218.7s-1.425,5.061-8.291,6.675S83,222.771,83,222.771l1.512,12.075,8.405,19.022L114.4,248.79S113.114,226.661,105.753,218.7Z" transform="translate(-62.096 -183.529)" fill="#93b4e5"/>
      <path id="Path_1902" data-name="Path 1902" d="M105.753,218.7s-1.425,5.061-8.291,6.675S83,222.771,83,222.771l1.512,12.075,8.405,19.022L114.4,248.79S113.114,226.661,105.753,218.7Z" transform="translate(-62.096 -183.529)" fill="#fff" opacity="0.7"/>
      <path id="Path_1973" data-name="Path 1973" d="M.511,0,3.125.071a.541.541,0,0,1,.538.5L3.8,5.126a.472.472,0,0,1-.51.47L.672,5.525a.541.541,0,0,1-.538-.5L0,.47A.472.472,0,0,1,.511,0Z" transform="translate(50.393 54.365) rotate(162.49)" fill="#93b4e5" opacity="0.6"/>
      <path id="Path_1974" data-name="Path 1974" d="M0,0,2.973.08l.11,3.754L.11,3.754Z" transform="translate(49.738 53.107) rotate(162.49)" opacity="0.2"/>
      <path id="Path_1975" data-name="Path 1975" d="M0,0,.657.018.722,2.229.065,2.211Z" transform="translate(46.15 48.457) rotate(-17.51)" fill="#263238"/>
      <path id="Path_1903" data-name="Path 1903" d="M91.325,187.55c-5.293,0-8.787,5.085-7.549,13.149s6.2,10.388,6.2,10.388l-.315-1.948a55.535,55.535,0,0,0,16.79.849,31.133,31.133,0,0,1-1.727-13.294S106.4,187.538,91.325,187.55Z" transform="translate(-62.27 -171.28)" fill="#263238"/>
      <path id="Path_1904" data-name="Path 1904" d="M105.448,226.935l2.162,7.281-3.8-2.627s3.7,7.67,4.684,12.135a92.47,92.47,0,0,0-5.956-11.771l-1.613,4.175-6.485-5.989S100.168,226.158,105.448,226.935Z" transform="translate(-65.88 -186.728)" opacity="0.2"/>
      <path id="Path_1905" data-name="Path 1905" d="M101.741,224.96l-6.6.182c2.924-3.392-2.362-9.3-2.362-9.3l6.518,1.28c1.553,5.849,4.236,6.025,4.236,6.025Z" transform="translate(-65.331 -182.405)" fill="#e4897b"/>
      <path id="Path_1906" data-name="Path 1906" d="M101.118,221.335a10.291,10.291,0,0,1-6.545-2.955,17.955,17.955,0,0,0-1.793-2.5l6.518,1.286a12.745,12.745,0,0,0,1.82,4.169Z" transform="translate(-65.331 -182.42)" opacity="0.2"/>
      <path id="Path_1907" data-name="Path 1907" d="M98.488,191.6c5.682.431,7.261,3.325,7.187,8.671-.087,6.674-2.148,11.268-9.121,9.314C87.078,206.938,89.046,190.889,98.488,191.6Z" transform="translate(-64.528 -172.866)" fill="#e4897b"/>
      <path id="Path_1908" data-name="Path 1908" d="M107.754,205a10.778,10.778,0,0,0,1.459,2.263,1.677,1.677,0,0,1-1.553.467Z" transform="translate(-70.253 -178.142)" fill="#de5753"/>
      <path id="Path_1909" data-name="Path 1909" d="M102.05,203.344l1.231-.364S102.626,203.866,102.05,203.344Z" transform="translate(-68.397 -177.348)" fill="#263238"/>
      <path id="Path_1910" data-name="Path 1910" d="M102.028,203.307a1.115,1.115,0,0,0-1.338.328,1.764,1.764,0,0,1,1.338,0Z" transform="translate(-67.947 -177.438)" fill="#263238"/>
      <path id="Path_1911" data-name="Path 1911" d="M99.151,198.611a.253.253,0,0,1-.167-.067.2.2,0,0,1,0-.309,3.438,3.438,0,0,1,2.764-.655.221.221,0,0,1,.187.261.244.244,0,0,1-.288.17,2.969,2.969,0,0,0-2.315.528.245.245,0,0,1-.181.073Z" transform="translate(-67.359 -175.2)" fill="#263238"/>
      <path id="Path_1912" data-name="Path 1912" d="M111.373,198.779a.243.243,0,0,1-.147-.042,2.613,2.613,0,0,0-2.008-.558.246.246,0,0,1-.3-.155.219.219,0,0,1,.171-.27,3.1,3.1,0,0,1,2.443.637.21.21,0,0,1,.04.309A.253.253,0,0,1,111.373,198.779Z" transform="translate(-70.667 -175.277)" fill="#263238"/>
      <path id="Path_1913" data-name="Path 1913" d="M90.777,198.446s3.045-4.029,2.944-7.33c0,0,11.651-3.325,11.256,7.087,0,0,1.941-9.1-7.81-10.066s-10.881,12.032-6.19,16.28C90.978,204.417,88.91,200.97,90.777,198.446Z" transform="translate(-63.85 -171.491)" fill="#263238"/>
      <path id="Path_1914" data-name="Path 1914" d="M91.251,205.6a2.394,2.394,0,0,0-2.5-2.269c-1.78.042-2.918,3.258,1.392,4.381C90.762,207.869,91.17,207.341,91.251,205.6Z" transform="translate(-63.474 -177.485)" fill="#e4897b"/>
      <path id="Path_1915" data-name="Path 1915" d="M105.878,210.875a12.4,12.4,0,0,0-1.118,1.6c-.114-.036-.234-.067-.348-.109-1.573-.5-2.121-1.214-2.249-1.82a1.725,1.725,0,0,1,.074-.922,1.888,1.888,0,0,1,.241-.485,7.937,7.937,0,0,0,2.864,1.565C105.664,210.815,105.878,210.875,105.878,210.875Z" transform="translate(-68.425 -179.77)" fill="#263238"/>
      <path id="Path_1916" data-name="Path 1916" d="M105.4,210.685l-.341.467c-1.486-.479-2.456-1-2.764-1.547a1.889,1.889,0,0,1,.241-.485A7.937,7.937,0,0,0,105.4,210.685Z" transform="translate(-68.477 -179.762)" fill="#fff"/>
      <path id="Path_1917" data-name="Path 1917" d="M104.429,213.28c-1.573-.5-2.121-1.214-2.249-1.82a5.444,5.444,0,0,1,1.626.868A1.8,1.8,0,0,1,104.429,213.28Z" transform="translate(-68.44 -180.682)" fill="#de5753"/>
      <path id="Path_1918" data-name="Path 1918" d="M96.947,189.963S93.876,198.269,88,197.7s4.2-10.606,4.2-10.606,9.911-2.567,14.227,2.427-2.135,8.022-2.135,8.022S105.252,191.025,96.947,189.963Z" transform="translate(-63.141 -170.841)" fill="#263238"/>
      <path id="Path_1919" data-name="Path 1919" d="M95.2,198.827a.189.189,0,0,1-.161-.1.154.154,0,0,1,.1-.2c4.684-1.62,4.577-7.318,4.577-7.378a.132.132,0,0,1,.042-.109.162.162,0,0,1,.118-.043.175.175,0,0,1,.174.146c0,.061.107,5.971-4.791,7.67Z" transform="translate(-66.073 -172.637)" fill="#263238"/>
      <path id="Path_1920" data-name="Path 1920" d="M110.67,204.178l1.231-.358S111.239,204.7,110.67,204.178Z" transform="translate(-71.249 -177.678)" fill="#263238"/>
      <path id="Path_1921" data-name="Path 1921" d="M110.648,204.136a1.107,1.107,0,0,0-1.338.334,1.749,1.749,0,0,1,1.338-.036Z" transform="translate(-70.799 -177.764)" fill="#263238"/>
      <path id="Path_1922" data-name="Path 1922" d="M96.605,227.13l4.972,2.294-.08,4.569-7.107-3.756Z" transform="translate(-65.863 -186.844)" fill="#93b4e5"/>
      <path id="Path_1923" data-name="Path 1923" d="M106.26,225.71l.294,2.773L109.8,231.6l-.442-5.121Z" transform="translate(-69.79 -186.286)" fill="#93b4e5"/>
      <path id="Path_1924" data-name="Path 1924" d="M66.512,168.784l-2.075-4.854A1.6,1.6,0,0,0,63.9,162.5a12.406,12.406,0,0,0-5.18-1.76c-1.091.146-3.346,1.936-3.152,3.107s6.565,1.893,6.565,1.893l2.115,5.321Z" transform="translate(-53.016 -160.736)" fill="#e4897b"/>
      <path id="Path_1925" data-name="Path 1925" d="M78.882,215.979s4.015-2.894,2.416-9.29L76.982,189,69.567,170.72l-3.627,1.663s6.09,17.857,6.652,19.065c.288.607,1.432,9.872,2.991,16.079A28.489,28.489,0,0,0,78.882,215.979Z" transform="translate(-56.452 -164.662)" fill="#93b4e5"/>
      <path id="Path_1926" data-name="Path 1926" d="M78.882,215.979s4.015-2.894,2.416-9.29L76.982,189,69.567,170.72l-3.627,1.663s6.09,17.857,6.652,19.065c.288.607,1.432,9.872,2.991,16.079A28.489,28.489,0,0,0,78.882,215.979Z" transform="translate(-56.452 -164.662)" fill="#fff" opacity="0.6"/>
      <path id="Path_1927" data-name="Path 1927" d="M64.99,171.353l4.236-1.923.923,1.28L65.2,172.7Z" transform="translate(-56.138 -164.155)" fill="#93b4e5"/>
      <path id="Path_1928" data-name="Path 1928" d="M64.99,171.353l4.236-1.923.923,1.28L65.2,172.7Z" transform="translate(-56.138 -164.155)" fill="#fff" opacity="0.7"/>
      <path id="Path_1929" data-name="Path 1929" d="M96.605,227.13l4.972,2.294-.08,4.569-7.107-3.756Z" transform="translate(-65.863 -186.844)" fill="#fff" opacity="0.6"/>
      <path id="Path_1930" data-name="Path 1930" d="M106.26,225.71l.294,2.773L109.8,231.6l-.442-5.121Z" transform="translate(-69.79 -186.286)" fill="#fff" opacity="0.6"/>
    </g>
    <g id="freepik--Desk--inject-3" transform="translate(92.624 149.135)">
      <rect id="Rectangle_278" data-name="Rectangle 278" width="20.049" height="14.126" transform="translate(99.637 0.771)" fill="#fff"/>
      <rect id="Rectangle_279" data-name="Rectangle 279" width="5.139" height="14.126" transform="translate(114.547 0.771)" opacity="0.1"/>
      <path id="Path_1931" data-name="Path 1931" d="M285.58,238.636h22.666V213h-7.3l-15.365,6.668Z" transform="translate(-187.094 -211.265)" fill="#93b4e5"/>
      <rect id="Rectangle_280" data-name="Rectangle 280" width="7.301" height="25.636" transform="translate(113.851 1.735)" opacity="0.2"/>
      <rect id="Rectangle_281" data-name="Rectangle 281" width="10.614" height="4.611" transform="translate(100.822 13.458)" fill="#fff" opacity="0.7"/>
      <rect id="Rectangle_282" data-name="Rectangle 282" width="10.614" height="0.661" transform="translate(100.822 19.611)" fill="#fff" opacity="0.7"/>
      <rect id="Rectangle_283" data-name="Rectangle 283" width="5.896" height="3.914" transform="translate(114.547 21.547)" fill="#fff" opacity="0.7"/>
      <rect id="Rectangle_284" data-name="Rectangle 284" width="20.049" height="14.896" transform="translate(91.118)" fill="#fff"/>
      <rect id="Rectangle_285" data-name="Rectangle 285" width="5.139" height="14.896" transform="translate(106.028)" opacity="0.1"/>
      <path id="Path_1932" data-name="Path 1932" d="M272.85,238.636h22.666V213h-7.3l-15.365,6.668Z" transform="translate(-182.883 -211.265)" fill="#93b4e5"/>
      <rect id="Rectangle_286" data-name="Rectangle 286" width="7.301" height="25.636" transform="translate(105.332 1.735)" opacity="0.2"/>
      <rect id="Rectangle_287" data-name="Rectangle 287" width="10.614" height="4.611" transform="translate(92.303 13.458)" fill="#fff" opacity="0.7"/>
      <rect id="Rectangle_288" data-name="Rectangle 288" width="10.614" height="0.661" transform="translate(92.303 19.611)" fill="#fff" opacity="0.7"/>
      <rect id="Rectangle_289" data-name="Rectangle 289" width="5.896" height="3.914" transform="translate(106.028 21.547)" fill="#fff" opacity="0.7"/>
      <path id="Path_1933" data-name="Path 1933" d="M251.81,355.4h4.1l7.361-92.988h-5.441Z" transform="translate(-175.923 -230.694)" fill="#263238"/>
      <path id="Path_1934" data-name="Path 1934" d="M251.81,355.5h4.1l7-88.37.361-4.466h-5.441l-.288,4.466Z" transform="translate(-175.923 -230.792)" fill="#fff" opacity="0.1"/>
      <path id="Path_1935" data-name="Path 1935" d="M260.38,266.907h5.367l.361-4.247h-5.441Z" transform="translate(-178.758 -230.792)" opacity="0.2"/>
      <path id="Path_1936" data-name="Path 1936" d="M206.519,355.4h4.1l.669-92.988H205.85Z" transform="translate(-160.719 -230.694)" fill="#263238"/>
      <path id="Path_1937" data-name="Path 1937" d="M205.84,262.66l.114,15,.555,77.837h4.1l.562-77.837.107-15Z" transform="translate(-160.716 -230.792)" fill="#fff" opacity="0.1"/>
      <path id="Path_1938" data-name="Path 1938" d="M205.84,262.66l.114,15.169h5.22l.107-15.169Z" transform="translate(-160.716 -230.792)" opacity="0.2"/>
      <path id="Path_1939" data-name="Path 1939" d="M141.81,355.4h4.1l7.361-92.988h-5.441Z" transform="translate(-139.535 -230.694)" fill="#263238"/>
      <path id="Path_1940" data-name="Path 1940" d="M141.81,355.5h4.1l7.007-88.37.355-4.466h-5.441l-.288,4.466Z" transform="translate(-139.535 -230.792)" fill="#fff" opacity="0.1"/>
      <path id="Path_1941" data-name="Path 1941" d="M150.38,266.907h5.374l.355-4.247h-5.441Z" transform="translate(-142.37 -230.792)" opacity="0.2"/>
      <path id="Path_1942" data-name="Path 1942" d="M318.248,355.4h4.1l-6.029-92.988H310.88Z" transform="translate(-195.463 -230.694)" fill="#263238"/>
      <path id="Path_1943" data-name="Path 1943" d="M310.88,262.66l.368,4.466,7,88.37h4.1l-5.728-88.37-.294-4.466Z" transform="translate(-195.463 -230.792)" fill="#fff" opacity="0.1"/>
      <path id="Path_1944" data-name="Path 1944" d="M316.321,262.66H310.88l.368,4.247h5.367Z" transform="translate(-195.463 -230.792)" opacity="0.2"/>
      <path id="Path_1945" data-name="Path 1945" d="M1.445,0H119.733a1.383,1.383,0,0,1,1.445,1.311V4.654H0V1.311A1.383,1.383,0,0,1,1.445,0Z" transform="translate(125.174 34.046) rotate(180)" fill="#93b4e5"/>
      <path id="Path_1946" data-name="Path 1946" d="M1.445,0H119.733a1.383,1.383,0,0,1,1.445,1.311V4.654H0V1.311A1.383,1.383,0,0,1,1.445,0Z" transform="translate(125.174 34.046) rotate(180)" fill="#fff" opacity="0.4"/>
      <rect id="Rectangle_290" data-name="Rectangle 290" width="121.179" height="2.33" transform="translate(125.174 31.716) rotate(180)" opacity="0.2"/>
      <path id="Path_1947" data-name="Path 1947" d="M139.862,257.871H266.12a1.518,1.518,0,0,0,1.024-.382,1.246,1.246,0,0,0,.421-.929h0a1.383,1.383,0,0,0-1.445-1.311H139.862a1.39,1.39,0,0,0-1.452,1.311h0a1.252,1.252,0,0,0,.426.929,1.525,1.525,0,0,0,1.026.382Z" transform="translate(-138.41 -227.878)" fill="#93b4e5"/>
      <path id="Path_1948" data-name="Path 1948" d="M139.862,257.871H266.12a1.518,1.518,0,0,0,1.024-.382,1.246,1.246,0,0,0,.421-.929h0a1.383,1.383,0,0,0-1.445-1.311H139.862a1.39,1.39,0,0,0-1.452,1.311h0a1.252,1.252,0,0,0,.426.929,1.525,1.525,0,0,0,1.026.382Z" transform="translate(-138.41 -227.878)" fill="#fff" opacity="0.4"/>
      <path id="Path_1949" data-name="Path 1949" d="M273.152,247.267v-2.051h1.519l-1.519-.8h1.138l-1.519-.9h-1.439v-1.031h1.673l-1.673-.6v-2.239h1.673v-1.462h1.666l-1.666-.51V236.63H274.2l-.977-.88-.843-.771H246.518v1.05h-1.706l1.9.777v.868h-3.487v1.614H241.68l1.546.7v1.8h1.1v.862h2.195v2.561h-1.231l1.01.916v1.147Z" transform="translate(-172.572 -219.908)" fill="#93b4e5"/>
      <path id="Path_1950" data-name="Path 1950" d="M273.152,247.267v-2.051h1.519l-1.519-.8h1.138l-1.519-.9h-1.439v-1.031h1.673l-1.673-.6v-2.239h1.673v-1.462h1.666l-1.666-.51V236.63H274.2l-.977-.88-.843-.771H246.518v1.05h-1.706l1.9.777v.868h-3.487v1.614H241.68l1.546.7v1.8h1.1v.862h2.195v2.561h-1.231l1.01.916v1.147Z" transform="translate(-172.572 -219.908)" fill="#fff" opacity="0.7"/>
      <path id="Path_1951" data-name="Path 1951" d="M279.2,247.267v-2.051h1.519l-1.519-.8h1.138l-1.519-.9h-1.439v-1.031h1.673l-1.673-.6v-2.239h1.673v-1.462h1.666l-1.666-.51V236.63h1.191l-.977-.88-.843-.771H264.8v1.05H263.1l1.894.777v.868h-3.487v1.614H259.96l1.546.7v1.8h1.1v.862h2.2v2.561h-1.231l1,.916v1.147Z" transform="translate(-178.619 -219.908)" opacity="0.1"/>
      <path id="Path_1952" data-name="Path 1952" d="M249.2,239.16h12.233l-12.233-.4Z" transform="translate(-175.059 -221.394)" opacity="0.1"/>
      <path id="Path_1953" data-name="Path 1953" d="M248.91,247.63h12.24l.054.777Z" transform="translate(-174.963 -224.882)" opacity="0.1"/>
      <path id="Path_1954" data-name="Path 1954" d="M245.63,246.21h12.233l-12.233.388Z" transform="translate(-173.878 -224.324)" opacity="0.1"/>
      <path id="Path_1955" data-name="Path 1955" d="M248.91,251.587h12.24l-12.24-.407Z" transform="translate(-174.963 -226.278)" opacity="0.1"/>
      <path id="Path_1956" data-name="Path 1956" d="M248.58,253.36h12.233v.425Z" transform="translate(-174.854 -227.135)" opacity="0.1"/>
      <path id="Path_1957" data-name="Path 1957" d="M243.99,241.852h12.233L243.99,241.5Z" transform="translate(-173.336 -222.472)" opacity="0.1"/>
      <path id="Path_1958" data-name="Path 1958" d="M248.91,236.458h12.24l-12.24-.388Z" transform="translate(-174.963 -220.336)" opacity="0.1"/>
      <path id="Path_1959" data-name="Path 1959" d="M282.354,237.7H269.94l12.414.346Z" transform="translate(-181.92 -220.977)" opacity="0.1"/>
      <path id="Path_1960" data-name="Path 1960" d="M267.48,239.42h14.06l-12.748.376Z" transform="translate(-181.106 -221.654)" opacity="0.1"/>
      <path id="Path_1961" data-name="Path 1961" d="M262.27,242.08l17.546.358v-.358Z" transform="translate(-179.383 -222.7)" opacity="0.1"/>
      <path id="Path_1962" data-name="Path 1962" d="M262.27,243.24h8.68l-8.68.382Z" transform="translate(-179.383 -223.156)" opacity="0.1"/>
      <path id="Path_1963" data-name="Path 1963" d="M279.774,246.136l-12.574-.091,12.574-.255Z" transform="translate(-181.014 -224.159)" opacity="0.1"/>
      <path id="Path_1964" data-name="Path 1964" d="M279.662,247.35h-12.8l12.8.388Z" transform="translate(-180.901 -224.772)" opacity="0.1"/>
      <path id="Path_1965" data-name="Path 1965" d="M281.687,250.53H267.48v.394Z" transform="translate(-181.106 -226.022)" opacity="0.1"/>
      <path id="Path_1966" data-name="Path 1966" d="M283.622,251.85H273.33l10.292.261Z" transform="translate(-183.042 -226.541)" opacity="0.1"/>
      <path id="Path_1967" data-name="Path 1967" d="M217.108,250.87v1.948c0,.5-.669.7-1.2.7H173c-.549,0-1.211-.206-1.211-.7V250.87Z" transform="translate(-149.452 -226.156)" fill="#263238"/>
      <path id="Path_1968" data-name="Path 1968" d="M217.108,250.87v1.948c0,.5-.669.7-1.2.7H173c-.549,0-1.211-.206-1.211-.7V250.87Z" transform="translate(-149.452 -226.156)" fill="#fff" opacity="0.4"/>
      <path id="Path_1969" data-name="Path 1969" d="M224.333,250.87v1.948c0,.5-.669.7-1.2.7h-28.3c-.549,0-1.2-.206-1.2-.7V250.87Z" transform="translate(-156.677 -226.156)" opacity="0.2"/>
      <path id="Path_1970" data-name="Path 1970" d="M232.558,216.918l-5.113,21.013a1.7,1.7,0,0,1-1.66,1.214h-27.9a1.162,1.162,0,0,1-.886-.422.942.942,0,0,1-.164-.9l5.1-20.849a1.6,1.6,0,0,1,1.66-1.031H231.5C232.25,215.923,232.718,216.232,232.558,216.918Z" transform="translate(-157.721 -212.422)" fill="#263238"/>
      <path id="Path_1971" data-name="Path 1971" d="M233.024,216.918l-5.113,21.013a1.7,1.7,0,0,1-1.66,1.214H199.3a1.162,1.162,0,0,1-.886-.422.942.942,0,0,1-.164-.9l5.106-20.849a1.594,1.594,0,0,1,1.66-1.031h26.955C232.716,215.923,233.185,216.232,233.024,216.918Z" transform="translate(-158.187 -212.421)" fill="#fff" opacity="0.4"/>
      <path id="Path_1972" data-name="Path 1972" d="M226.8,233.042h0c0,1.82-2.128,3.258-3.687,3.258s-2.483-1.462-2.008-3.258a4.219,4.219,0,0,1,3.52-3.252c-.442,1.82.509,3.252,2.061,3.252Z" transform="translate(-165.725 -217.867)" opacity="0.2"/>
    </g>
  </g>
</svg>
