<svg xmlns="http://www.w3.org/2000/svg" width="334.6" height="226.06" viewBox="0 0 334.6 226.06">
  <g id="Done-rafiki_3_" data-name="Done-rafiki (3)" transform="translate(0 -55)">
    <g id="freepik--background-complete--inject-3" transform="translate(0 55)">
      <rect id="Rectangle_291" data-name="Rectangle 291" width="334.6" height="0.152" transform="translate(0 198.658)" fill="#ebebeb"/>
      <rect id="Rectangle_292" data-name="Rectangle 292" width="22.164" height="0.152" transform="translate(278.909 208.421)" fill="#ebebeb"/>
      <rect id="Rectangle_293" data-name="Rectangle 293" width="5.815" height="0.152" transform="translate(215.837 210.071)" fill="#ebebeb"/>
      <rect id="Rectangle_294" data-name="Rectangle 294" width="12.842" height="0.152" transform="translate(265.398 202.79)" fill="#ebebeb"/>
      <rect id="Rectangle_295" data-name="Rectangle 295" width="28.903" height="0.152" transform="translate(35.106 203.81)" fill="#ebebeb"/>
      <rect id="Rectangle_296" data-name="Rectangle 296" width="4.236" height="0.152" transform="translate(69.972 203.81)" fill="#ebebeb"/>
      <rect id="Rectangle_297" data-name="Rectangle 297" width="62.691" height="0.152" transform="translate(87.98 206.37)" fill="#ebebeb"/>
      <path id="Path_1982" data-name="Path 1982" d="M171.24,226.6H42.024a3.655,3.655,0,0,1-3.814-3.465V58.434A3.659,3.659,0,0,1,42.024,55H171.24a3.656,3.656,0,0,1,3.821,3.465V223.131A3.656,3.656,0,0,1,171.24,226.6ZM42.024,55.121a3.5,3.5,0,0,0-3.647,3.313v164.7a3.5,3.5,0,0,0,3.647,3.313H171.24a3.5,3.5,0,0,0,3.654-3.313V58.434a3.5,3.5,0,0,0-3.654-3.313Z" transform="translate(-12.64 -55)" fill="#ebebeb"/>
      <path id="Path_1983" data-name="Path 1983" d="M387.544,226.6H258.321a3.662,3.662,0,0,1-3.821-3.465V58.434A3.666,3.666,0,0,1,258.321,55H387.544a3.658,3.658,0,0,1,3.808,3.434v164.7A3.655,3.655,0,0,1,387.544,226.6ZM258.321,55.121a3.5,3.5,0,0,0-3.654,3.313v164.7a3.5,3.5,0,0,0,3.654,3.313H387.544a3.5,3.5,0,0,0,3.654-3.313V58.434a3.5,3.5,0,0,0-3.654-3.313Z" transform="translate(-84.189 -55)" fill="#ebebeb"/>
      <rect id="Rectangle_298" data-name="Rectangle 298" width="47.681" height="146.664" transform="translate(62.396 6.523)" fill="#fafafa"/>
      <path id="Path_1984" data-name="Path 1984" d="M144.283,65.75H141.5L124.87,212.414h2.784Z" transform="translate(-41.307 -59.227)" fill="#f5f5f5"/>
      <rect id="Rectangle_299" data-name="Rectangle 299" width="47.145" height="1.292" transform="translate(62.088 7.087)" fill="#e0e0e0"/>
      <rect id="Rectangle_300" data-name="Rectangle 300" width="47.145" height="2.767" transform="translate(62.088 151.9)" fill="#ebebeb"/>
      <rect id="Rectangle_301" data-name="Rectangle 301" width="44.549" height="0.121" transform="translate(63.902 154.546)" fill="#ebebeb"/>
      <path id="Path_1985" data-name="Path 1985" d="M94.17,65.5h44.549V212.963h2.67V63.69H91.5V212.963h2.67Z" transform="translate(-30.268 -58.417)" fill="#ebebeb"/>
      <rect id="Rectangle_302" data-name="Rectangle 302" width="47.681" height="146.664" transform="translate(115.457 6.523)" fill="#fafafa"/>
      <path id="Path_1986" data-name="Path 1986" d="M208.277,65.75h-15.2L176.45,212.414h15.2Z" transform="translate(-58.37 -59.227)" fill="#f5f5f5"/>
      <rect id="Rectangle_303" data-name="Rectangle 303" width="48.484" height="1.292" transform="translate(115.149 7.087)" fill="#e0e0e0"/>
      <rect id="Rectangle_304" data-name="Rectangle 304" width="48.484" height="2.767" transform="translate(115.149 151.9)" fill="#ebebeb"/>
      <rect id="Rectangle_305" data-name="Rectangle 305" width="44.549" height="0.121" transform="translate(116.963 154.546)" fill="#ebebeb"/>
      <path id="Path_1987" data-name="Path 1987" d="M173.46,65.5h44.549V212.963h2.663V63.69H170.79V212.963h2.67Z" transform="translate(-56.497 -58.417)" fill="#ebebeb"/>
      <rect id="Rectangle_306" data-name="Rectangle 306" width="46.342" height="146.664" transform="translate(168.511 6.523)" fill="#fafafa"/>
      <path id="Path_1988" data-name="Path 1988" d="M281.453,65.75H278.67L262.04,212.414h2.784Z" transform="translate(-86.683 -59.227)" fill="#f5f5f5"/>
      <rect id="Rectangle_307" data-name="Rectangle 307" width="47.145" height="1.292" transform="translate(168.21 7.087)" fill="#e0e0e0"/>
      <rect id="Rectangle_308" data-name="Rectangle 308" width="47.145" height="2.767" transform="translate(168.21 151.9)" fill="#ebebeb"/>
      <rect id="Rectangle_309" data-name="Rectangle 309" width="44.549" height="0.121" transform="translate(170.024 154.546)" fill="#ebebeb"/>
      <path id="Path_1989" data-name="Path 1989" d="M252.75,65.5h44.542V212.963h2.67V63.69H250.08V212.963h2.67Z" transform="translate(-82.726 -58.417)" fill="#ebebeb"/>
      <rect id="Rectangle_310" data-name="Rectangle 310" width="47.681" height="146.664" transform="translate(221.572 6.523)" fill="#fafafa"/>
      <path id="Path_1990" data-name="Path 1990" d="M379.644,65.75h-15.2L347.81,212.414h15.2Z" transform="translate(-115.056 -59.227)" fill="#f5f5f5"/>
      <rect id="Rectangle_311" data-name="Rectangle 311" width="47.145" height="1.292" transform="translate(221.264 7.087)" fill="#e0e0e0"/>
      <rect id="Rectangle_312" data-name="Rectangle 312" width="47.145" height="2.767" transform="translate(221.264 151.9)" fill="#ebebeb"/>
      <path id="Path_1991" data-name="Path 1991" d="M332.033,65.5h44.549V212.963h2.67V63.69H329.37V212.963h2.663Z" transform="translate(-108.956 -58.417)" fill="#ebebeb"/>
      <rect id="Rectangle_313" data-name="Rectangle 313" width="44.549" height="0.121" transform="translate(223.078 154.546)" fill="#ebebeb"/>
      <rect id="Rectangle_314" data-name="Rectangle 314" width="20.698" height="32.456" transform="translate(77.968 119.45)" fill="#ebebeb"/>
      <path id="Path_1992" data-name="Path 1992" d="M135.2,244.38v8.143H122.45V244.38Z" transform="translate(-40.506 -129.469)" fill="#ebebeb"/>
      <rect id="Rectangle_315" data-name="Rectangle 315" width="2.65" height="2.403" transform="translate(97.342 123.054) rotate(180)" fill="#fafafa"/>
      <rect id="Rectangle_316" data-name="Rectangle 316" width="2.65" height="2.403" transform="translate(92.216 123.054) rotate(180)" fill="#fafafa"/>
      <rect id="Rectangle_317" data-name="Rectangle 317" width="2.65" height="2.403" transform="translate(87.083 123.054) rotate(180)" fill="#fafafa"/>
      <rect id="Rectangle_318" data-name="Rectangle 318" width="2.65" height="2.403" transform="translate(81.95 123.054) rotate(180)" fill="#f0f0f0"/>
      <rect id="Rectangle_319" data-name="Rectangle 319" width="2.65" height="2.403" transform="translate(97.342 127.417) rotate(180)" fill="#f0f0f0"/>
      <rect id="Rectangle_320" data-name="Rectangle 320" width="2.65" height="2.403" transform="translate(92.216 127.417) rotate(180)" fill="#f0f0f0"/>
      <rect id="Rectangle_321" data-name="Rectangle 321" width="2.65" height="2.403" transform="translate(87.083 127.417) rotate(180)" fill="#fafafa"/>
      <rect id="Rectangle_322" data-name="Rectangle 322" width="2.65" height="2.403" transform="translate(81.95 127.417) rotate(180)" fill="#fafafa"/>
      <rect id="Rectangle_323" data-name="Rectangle 323" width="2.65" height="2.403" transform="translate(97.342 131.785) rotate(180)" fill="#f0f0f0"/>
      <rect id="Rectangle_324" data-name="Rectangle 324" width="2.65" height="2.403" transform="translate(92.216 131.785) rotate(180)" fill="#fafafa"/>
      <rect id="Rectangle_325" data-name="Rectangle 325" width="2.65" height="2.403" transform="translate(87.083 131.785) rotate(180)" fill="#fafafa"/>
      <rect id="Rectangle_326" data-name="Rectangle 326" width="2.65" height="2.403" transform="translate(92.216 119.28) rotate(180)" fill="#fafafa"/>
      <rect id="Rectangle_327" data-name="Rectangle 327" width="2.65" height="2.403" transform="translate(87.083 119.28) rotate(180)" fill="#f0f0f0"/>
      <rect id="Rectangle_328" data-name="Rectangle 328" width="2.65" height="2.403" transform="translate(81.95 131.785) rotate(180)" fill="#f0f0f0"/>
      <rect id="Rectangle_329" data-name="Rectangle 329" width="2.65" height="2.403" transform="translate(97.342 136.154) rotate(180)" fill="#fafafa"/>
      <rect id="Rectangle_330" data-name="Rectangle 330" width="2.65" height="2.403" transform="translate(92.216 136.154) rotate(180)" fill="#f0f0f0"/>
      <rect id="Rectangle_331" data-name="Rectangle 331" width="2.65" height="2.403" transform="translate(87.083 136.154) rotate(180)" fill="#f0f0f0"/>
      <rect id="Rectangle_332" data-name="Rectangle 332" width="2.65" height="2.403" transform="translate(81.95 136.154) rotate(180)" fill="#fafafa"/>
      <rect id="Rectangle_333" data-name="Rectangle 333" width="2.65" height="2.403" transform="translate(97.342 140.523) rotate(180)" fill="#f0f0f0"/>
      <rect id="Rectangle_334" data-name="Rectangle 334" width="2.65" height="2.403" transform="translate(92.216 140.523) rotate(180)" fill="#fafafa"/>
      <rect id="Rectangle_335" data-name="Rectangle 335" width="2.65" height="2.403" transform="translate(87.083 140.523) rotate(180)" fill="#fafafa"/>
      <rect id="Rectangle_336" data-name="Rectangle 336" width="2.65" height="2.403" transform="translate(81.95 140.523) rotate(180)" fill="#f0f0f0"/>
      <rect id="Rectangle_337" data-name="Rectangle 337" width="2.65" height="2.403" transform="translate(97.342 144.886) rotate(180)" fill="#f0f0f0"/>
      <rect id="Rectangle_338" data-name="Rectangle 338" width="2.65" height="2.403" transform="translate(92.216 144.886) rotate(180)" fill="#fafafa"/>
      <rect id="Rectangle_339" data-name="Rectangle 339" width="2.65" height="2.403" transform="translate(87.083 144.886) rotate(180)" fill="#f0f0f0"/>
      <rect id="Rectangle_340" data-name="Rectangle 340" width="2.65" height="2.403" transform="translate(81.95 144.886) rotate(180)" fill="#fafafa"/>
      <rect id="Rectangle_341" data-name="Rectangle 341" width="2.65" height="2.403" transform="translate(97.342 149.254) rotate(180)" fill="#fafafa"/>
      <rect id="Rectangle_342" data-name="Rectangle 342" width="2.65" height="2.403" transform="translate(92.216 149.254) rotate(180)" fill="#fafafa"/>
      <rect id="Rectangle_343" data-name="Rectangle 343" width="2.65" height="2.403" transform="translate(87.083 149.254) rotate(180)" fill="#f0f0f0"/>
      <rect id="Rectangle_344" data-name="Rectangle 344" width="2.65" height="2.403" transform="translate(81.95 149.254) rotate(180)" fill="#f0f0f0"/>
      <rect id="Rectangle_345" data-name="Rectangle 345" width="18.544" height="20.63" transform="translate(225.942 131.27)" fill="#f0f0f0"/>
      <path id="Path_1993" data-name="Path 1993" d="M340.04,275.12h6.685v2.148H340.04Z" transform="translate(-112.485 -141.557)" fill="#e6e6e6"/>
      <path id="Path_1994" data-name="Path 1994" d="M340.04,281.99h6.685v2.154H340.04Z" transform="translate(-112.485 -144.258)" fill="#fafafa"/>
      <path id="Path_1995" data-name="Path 1995" d="M340.04,288.86h6.685v2.154H340.04Z" transform="translate(-112.485 -146.96)" fill="#e6e6e6"/>
      <path id="Path_1996" data-name="Path 1996" d="M340.04,295.73h6.685v2.154H340.04Z" transform="translate(-112.485 -149.661)" fill="#fafafa"/>
      <path id="Path_1997" data-name="Path 1997" d="M352.93,275.12h6.685v2.148H352.93Z" transform="translate(-116.749 -141.557)" fill="#fafafa"/>
      <path id="Path_1998" data-name="Path 1998" d="M352.93,281.99h6.685v2.154H352.93Z" transform="translate(-116.749 -144.258)" fill="#fafafa"/>
      <path id="Path_1999" data-name="Path 1999" d="M352.93,288.86h6.685v2.154H352.93Z" transform="translate(-116.749 -146.96)" fill="#e6e6e6"/>
      <path id="Path_2000" data-name="Path 2000" d="M352.93,295.73h6.685v2.154H352.93Z" transform="translate(-116.749 -149.661)" fill="#fafafa"/>
      <rect id="Rectangle_346" data-name="Rectangle 346" width="16.85" height="12.821" transform="translate(138.277 139.085)" fill="#f0f0f0"/>
      <rect id="Rectangle_347" data-name="Rectangle 347" width="2.155" height="1.954" transform="translate(154.05 142.641) rotate(180)" fill="#fafafa"/>
      <rect id="Rectangle_348" data-name="Rectangle 348" width="2.155" height="1.954" transform="translate(149.874 142.641) rotate(180)" fill="#fafafa"/>
      <rect id="Rectangle_349" data-name="Rectangle 349" width="2.155" height="1.954" transform="translate(145.692 142.641) rotate(180)" fill="#fafafa"/>
      <rect id="Rectangle_350" data-name="Rectangle 350" width="2.155" height="1.954" transform="translate(141.516 142.641) rotate(180)" fill="#fafafa"/>
      <rect id="Rectangle_351" data-name="Rectangle 351" width="2.155" height="1.954" transform="translate(154.05 146.19) rotate(180)" fill="#fafafa"/>
      <rect id="Rectangle_352" data-name="Rectangle 352" width="2.155" height="1.954" transform="translate(149.874 146.19) rotate(180)" fill="#fafafa"/>
      <rect id="Rectangle_353" data-name="Rectangle 353" width="2.155" height="1.954" transform="translate(145.692 146.19) rotate(180)" fill="#fafafa"/>
      <rect id="Rectangle_354" data-name="Rectangle 354" width="2.155" height="1.954" transform="translate(141.516 146.19) rotate(180)" fill="#e6e6e6"/>
      <rect id="Rectangle_355" data-name="Rectangle 355" width="2.155" height="1.954" transform="translate(154.05 149.746) rotate(180)" fill="#e6e6e6"/>
      <rect id="Rectangle_356" data-name="Rectangle 356" width="2.155" height="1.954" transform="translate(149.874 149.746) rotate(180)" fill="#e6e6e6"/>
      <rect id="Rectangle_357" data-name="Rectangle 357" width="2.155" height="1.954" transform="translate(145.692 149.746) rotate(180)" fill="#fafafa"/>
      <rect id="Rectangle_358" data-name="Rectangle 358" width="2.155" height="1.954" transform="translate(141.516 149.746) rotate(180)" fill="#e6e6e6"/>
      <rect id="Rectangle_359" data-name="Rectangle 359" width="16.85" height="22.299" transform="translate(119.144 129.607)" fill="#f0f0f0"/>
      <rect id="Rectangle_360" data-name="Rectangle 360" width="6.337" height="5.51" transform="translate(128.58 130.584)" fill="#fafafa"/>
      <rect id="Rectangle_361" data-name="Rectangle 361" width="6.337" height="5.51" transform="translate(120.222 130.584)" fill="#fafafa"/>
      <rect id="Rectangle_362" data-name="Rectangle 362" width="6.337" height="5.51" transform="translate(128.58 137.689)" fill="#fafafa"/>
      <rect id="Rectangle_363" data-name="Rectangle 363" width="6.337" height="5.51" transform="translate(120.222 137.689)" fill="#fafafa"/>
      <rect id="Rectangle_364" data-name="Rectangle 364" width="6.337" height="5.51" transform="translate(128.58 144.795)" fill="#fafafa"/>
      <rect id="Rectangle_365" data-name="Rectangle 365" width="6.337" height="5.51" transform="translate(120.222 144.795)" fill="#fafafa"/>
    </g>
    <g id="freepik--Shadow--inject-3" transform="translate(37.549 267.323)">
      <ellipse id="freepik--path--inject-3" cx="129.751" cy="6.869" rx="129.751" ry="6.869" fill="#f5f5f5"/>
    </g>
    <g id="freepik--Sheet--inject-3" transform="translate(177.11 69.933)">
      <path id="Path_2001" data-name="Path 2001" d="M385.056,79.61V213.246l-17.734,16.08H264.66V79.61Z" transform="translate(-264.66 -79.61)" fill="#2d284b"/>
      <path id="Path_2002" data-name="Path 2002" d="M385.056,79.61V213.246l-17.734,16.08H264.66V79.61Z" transform="translate(-264.66 -79.61)" fill="#fff" opacity="0.8"/>
      <path id="Path_2003" data-name="Path 2003" d="M418.07,316.236V300.63H435.8l-17.386,15.764" transform="translate(-315.408 -166.521)" opacity="0.2"/>
      <path id="Path_2004" data-name="Path 2004" d="M315.456,98.928H282.25a1.684,1.684,0,0,1-1.76-1.6h0A1.523,1.523,0,0,1,281,96.2a1.856,1.856,0,0,1,1.247-.47h33.206a1.69,1.69,0,0,1,1.76,1.6h0A1.684,1.684,0,0,1,315.456,98.928Z" transform="translate(-269.897 -85.949)" opacity="0.1"/>
      <path id="Path_2005" data-name="Path 2005" d="M382.3,120.268H302.25A1.856,1.856,0,0,1,301,119.8a1.523,1.523,0,0,1-.513-1.132h0a1.684,1.684,0,0,1,1.76-1.6H382.3a1.684,1.684,0,0,1,1.76,1.6h0a1.69,1.69,0,0,1-1.76,1.6Z" transform="translate(-276.513 -94.34)" opacity="0.1"/>
      <path id="Path_2006" data-name="Path 2006" d="M375.684,130.638H282.25a1.684,1.684,0,0,1-1.76-1.6h0A1.523,1.523,0,0,1,281,127.91a1.856,1.856,0,0,1,1.247-.47h93.434a1.69,1.69,0,0,1,1.76,1.6h0A1.684,1.684,0,0,1,375.684,130.638Z" transform="translate(-269.897 -98.418)" opacity="0.1"/>
      <path id="Path_2007" data-name="Path 2007" d="M375.684,142.358H282.25a1.856,1.856,0,0,1-1.247-.47,1.523,1.523,0,0,1-.513-1.132h0a1.684,1.684,0,0,1,1.76-1.6h93.434a1.684,1.684,0,0,1,1.76,1.6h0A1.69,1.69,0,0,1,375.684,142.358Z" transform="translate(-269.897 -103.027)" opacity="0.1"/>
      <path id="Path_2008" data-name="Path 2008" d="M375.684,154.072H282.25a1.684,1.684,0,0,1-1.76-1.6h0a1.684,1.684,0,0,1,1.76-1.6h93.434a1.684,1.684,0,0,1,1.76,1.6h0a1.684,1.684,0,0,1-1.76,1.6Z" transform="translate(-269.897 -107.635)" opacity="0.1"/>
      <path id="Path_2009" data-name="Path 2009" d="M375.684,165.792H282.25a1.684,1.684,0,0,1-1.76-1.6h0a1.518,1.518,0,0,1,.514-1.13,1.849,1.849,0,0,1,1.246-.466h93.434a1.684,1.684,0,0,1,1.76,1.6h0a1.684,1.684,0,0,1-1.76,1.6Z" transform="translate(-269.897 -112.244)" opacity="0.1"/>
      <path id="Path_2010" data-name="Path 2010" d="M375.684,177.508H282.25a1.684,1.684,0,0,1-1.76-1.6h0A1.523,1.523,0,0,1,281,174.78a1.856,1.856,0,0,1,1.247-.47h93.434a1.69,1.69,0,0,1,1.76,1.6h0a1.684,1.684,0,0,1-1.76,1.6Z" transform="translate(-269.897 -116.848)" opacity="0.1"/>
      <rect id="Rectangle_366" data-name="Rectangle 366" width="96.96" height="3.198" rx="1.599" transform="translate(10.593 64.573)" opacity="0.1"/>
      <path id="Path_2011" data-name="Path 2011" d="M375.684,200.932H282.25a1.684,1.684,0,0,1-1.76-1.6h0a1.684,1.684,0,0,1,1.76-1.6h93.434a1.684,1.684,0,0,1,1.76,1.6h0a1.684,1.684,0,0,1-1.76,1.6Z" transform="translate(-269.897 -126.062)" opacity="0.1"/>
      <path id="Path_2012" data-name="Path 2012" d="M375.684,212.662H282.25a1.684,1.684,0,0,1-1.76-1.6h0a1.518,1.518,0,0,1,.514-1.13,1.849,1.849,0,0,1,1.246-.466h93.434a1.684,1.684,0,0,1,1.76,1.6h0a1.684,1.684,0,0,1-1.76,1.6Z" transform="translate(-269.897 -130.674)" opacity="0.1"/>
      <path id="Path_2013" data-name="Path 2013" d="M375.684,224.378H282.25a1.684,1.684,0,0,1-1.76-1.6h0A1.523,1.523,0,0,1,281,221.65a1.856,1.856,0,0,1,1.247-.47h93.434a1.69,1.69,0,0,1,1.76,1.6h0A1.684,1.684,0,0,1,375.684,224.378Z" transform="translate(-269.897 -135.279)" opacity="0.1"/>
      <path id="Path_2014" data-name="Path 2014" d="M375.684,236.1H282.25a1.855,1.855,0,0,1-1.247-.47,1.523,1.523,0,0,1-.513-1.132h0a1.684,1.684,0,0,1,1.76-1.6h93.434a1.684,1.684,0,0,1,1.76,1.6h0A1.69,1.69,0,0,1,375.684,236.1Z" transform="translate(-269.897 -139.887)" opacity="0.1"/>
      <path id="Path_2015" data-name="Path 2015" d="M322.148,247.812h-39.9a1.684,1.684,0,0,1-1.76-1.6h0a1.684,1.684,0,0,1,1.76-1.6h39.9a1.684,1.684,0,0,1,1.76,1.6h0A1.684,1.684,0,0,1,322.148,247.812Z" transform="translate(-269.897 -144.496)" opacity="0.1"/>
      <path id="Path_2016" data-name="Path 2016" d="M367.493,128.639l-.127-.1c-.361-.249-.569-.164-.736-.643-.12-.346,0-.734-.141-1.092a14.76,14.76,0,0,0-1.091-1.784l-1.646-2.688a3,3,0,0,0-3.861-1L344.733,129c-.06.461-.482.777-.569,1.214a.717.717,0,0,0,.254.716.834.834,0,0,1-.468-.152c-.9-.455-1.144-.819-2.075-.358-.4.194-.8.4-1.191.607l-4.015,2.033-12.581,6.353-14.722,7.451-12.266,6.2a39.5,39.5,0,0,0-5.193,2.658c.415.194.489.491.12.783l-.669.552c0,.152.241.152.395.091l.83-.322a8.165,8.165,0,0,1-2.054,1.693,17.734,17.734,0,0,1-4.2,1.565l.709-.807c.054-.067.12-.152.074-.231s-.134-.085-.214-.091a1.573,1.573,0,0,1-.97-.237c-2.289,1.214-4.684,2.366-7.013,3.544a2.457,2.457,0,0,0-1.1,3.5L293.1,190.634a2.8,2.8,0,0,0,1.7,1.223,3.09,3.09,0,0,0,2.155-.227l4.022-2.057c0-.431.375-.91.094-1.3a.329.329,0,0,1-.074-.164c0-.079.08-.14.154-.182a3.072,3.072,0,0,1,1.372-.4c.167,0,.388.067.361.212,0-.133.863-.413,1-.455.067.328-.181.68.241.746s1.064-.607,1.338-.728l4.015-2.033,12.715-6.414,13.946-7.045,9.268-4.684c.335-.176.729-.382,1.051-.528a2.742,2.742,0,0,1,.857-1.468c.669-.419,1.727.042,2.282-.552.107-.115.174-.255.268-.376a2.209,2.209,0,0,1,.669-.479,1.114,1.114,0,0,1,.562-.2c.2,0,.415.152.388.334a16.139,16.139,0,0,0,3.841-1.76c.442-.225,4.316-1.875,4.3-2.136-.054-.807.489-1.5.462-2.33,0-.158-.341-1.214-.187-1.292-3.48,1.881-7.094,3.592-10.64,5.376a3.055,3.055,0,0,0-.669.328s-.033.055-.047.085l-.1.2v.049a10.8,10.8,0,0,1-.509,1.214c0,.055-.756.9-.816.7-.294-.977-.669-1.129-1.492-.728l-1.178.607-3.741,1.887-12.6,6.371-14.85,7.5-12.374,6.25-5.186,2.615q-1.553-2.548-3.125-5.091l-2.008-3.271a3.7,3.7,0,0,0-.883-1.214c-.288-.194-.776-.146-1.031-.322-.622-.431-1.071-1.214-1.66-1.717a2.52,2.52,0,0,1-.843-1.923c.2.073.4.152.6.206a1.727,1.727,0,0,1,.067-1.129c-2.008-3.064-3.855-6.268-5.775-9.4l-.127-.2,4.684-2.366,3.42-1.729a12.259,12.259,0,0,0,2.008-1c.435-.34.877-.765,1.338-1.129a5.009,5.009,0,0,1,1-.534l1.265-.558a.51.51,0,0,1,.214-.061.958.958,0,0,1,.221.049c.669.127,2.329-1,2.931-1.3l3.895-1.966,11.751-5.94,14.642-7.391,14.656-7.409,11.791-5.952,6.023-3.034.281-.14,6.511,10.6a3.971,3.971,0,0,0,1.84,1.65c.268.079.569.249.535.5s-.435.455-.341.71.609.158.729.388-.207.607-.167.922a3.539,3.539,0,0,0,.609,1.05l1.894,3.088c1.057,1.711,2.108,3.428,3.172,5.158l-11.577,5.849a.531.531,0,0,1,.141.152l.06.14a5.2,5.2,0,0,1,.669.267.514.514,0,0,1,.294.473.53.53,0,0,1-.308.461l-.709.364a.739.739,0,0,1-.609.576,1.638,1.638,0,0,1-.248,0,.652.652,0,0,1-.5.091.553.553,0,0,1-.415-.674.8.8,0,0,1,.107-.176.5.5,0,0,1,.04-.564h-.214a1.346,1.346,0,0,1-.341-.091,3.134,3.134,0,0,0-1.338,1.432.154.154,0,0,0-.04.115c0,.085.147.091.234.127.2.085.154.352.054.528s-.221.4-.087.558a1.21,1.21,0,0,0,.167.146c.288.3-.154,1.159.549.807a.7.7,0,0,1,.087-.552.9.9,0,0,1,.515-.346,9.2,9.2,0,0,1,1.586-.206l13.953-7.075a2.457,2.457,0,0,0,1.1-3.5l-.08-.127-6.3-10.261-3.64-5.934c-.355-.564-.669-1.153-1.057-1.711A2.162,2.162,0,0,0,367.493,128.639Z" transform="translate(-268.893 -95.892)" fill="#2d284b"/>
      <path id="Path_2017" data-name="Path 2017" d="M311.879,187.479c-.462-.51-.321-.522-.408-1.068v-.036l-.054-.055-.08-.085c-.315.127-.629.267-.944.425l-6.163,3.113,2.483,4.035c-.348-.558.883-.394.93-.4a1.839,1.839,0,0,1,.4-.061.534.534,0,0,1,.328.2,1.7,1.7,0,0,1,.214,1.347c-.074.607.281,1.214-.1,1.82.328.485,3.292,5.376,3.306,5.37l6.163-3.113c.355-.182,1.2-.5,1.405-.825s-.12-.825.248-.977a1.08,1.08,0,0,1,.85.073,6.3,6.3,0,0,0,1.2-8.2,7.8,7.8,0,0,0-9.115-3.192c-.241.091.08,1.068-.5,1.177a1.484,1.484,0,0,1,.462-.5m3.841,10.157-2.871,1.45c-.234-.382-.462-.765-.7-1.135.3.461-.529.316-.7.212-.422-.255-.535-.989-.549-1.4a3.483,3.483,0,0,0-.669-1.99q-1.011-1.657-2.008-3.313l2.871-1.45c2.677-1.359,5.354-.795,6.8,1.559S319.046,195.343,316.349,196.684Z" transform="translate(-277.75 -121.207)" fill="#2d284b"/>
      <path id="Path_2018" data-name="Path 2018" d="M341.1,171.757a1.377,1.377,0,0,1,.12.922c-.033.17-.335.607-.294.716.107.243.214.485.315.728a.4.4,0,0,0,.074.109.338.338,0,0,0,.174.049c1.064.085,1.017.182,1.084,1,.06.7.723,1.1,1.1,1.705a4.123,4.123,0,0,1-.536,5.107,5.245,5.245,0,0,1-5.487,1.252.7.7,0,0,1-.08.061.732.732,0,0,1-.455.049A1.909,1.909,0,0,1,335.7,182.1a.358.358,0,0,1,0-.146,4.567,4.567,0,0,1-.5-.68,3.949,3.949,0,0,1-.547-3.4,4.4,4.4,0,0,1,2.373-2.672,5.291,5.291,0,0,1,2.757-.57l-.054-.073c-.576-.692,1.5-.971.562-1.438-.395-.194-.328-1.074-.428-1.432a9.9,9.9,0,0,0-4.33,1.086c-4.283,2.166-5.762,6.456-3.513,10.115a7.724,7.724,0,0,0,4.383,3.343,4.246,4.246,0,0,0,1.392.291c.549-.042.281,0,.515-.3s.094-.425.448-.74.77-.5.843-.989c0,.218.268.376.268.607v.194a.4.4,0,0,0,.114.212c.228.279.609.607.616.928a8.444,8.444,0,0,0,2.77-.922c4.263-2.154,5.775-6.438,3.513-10.109A7.674,7.674,0,0,0,341.1,171.757Z" transform="translate(-286.599 -115.818)" fill="#2d284b"/>
      <path id="Path_2019" data-name="Path 2019" d="M361.942,156.85l4.591,7.469L355.2,160.254l-2.6,1.317c1.753,2.852,3.614,5.673,5.26,8.58.114-.316.381-.376.7-.419.6-.073.582.2.91.74.04.067.087.133.161.146s.221-.1.341-.085a.182.182,0,0,1,.134.249,1.254,1.254,0,0,1-.167.285c-.194.334.127.546.087.849,0,.158-.582.8-.515.91l.669,1.044,3.105-1.565-.83-1.347H362.3c-.9.109-.5-.965-.7-1.408a15.887,15.887,0,0,0-1.1-1.82l-1.827-2.919,9.215,3.289a1.573,1.573,0,0,1,.094-.71c.074-.127.669-.364.669-.485a1.461,1.461,0,0,0,.562,1.013c.355.285.355.243.288.746l.549.2,2.583-1.3-7.562-12.3Z" transform="translate(-293.751 -109.357)" fill="#2d284b"/>
      <path id="Path_2020" data-name="Path 2020" d="M385.318,157.7l-1.753-2.846,6.3-3.186-1.338-2.215-6.3,3.186-1.64-2.676,4.256-2.148a1.976,1.976,0,0,1,.669-.5.658.658,0,0,1,.428-.042l1.8-.9s-1.278-2.069-1.4-2.288c-.616.255,0,.959-.622,1.3.127.121.315.552,0,.607-.181,0-.315-.206-.5-.188s-.187.1-.281.073a.189.189,0,0,1-.127-.1,2.491,2.491,0,0,0-.328-.516c-.422-.37-4.27,1.954-4.8,2.227l-3.58,1.82,7.555,12.3,3.018-1.523.06-.073c.221-.255.435-.516.669-.752a.657.657,0,0,1,.723-.079.45.45,0,0,1,.141.1l5.9-2.979-1.405-2.288Z" transform="translate(-301.528 -104.961)" fill="#2d284b"/>
    </g>
    <g id="freepik--Plant--inject-3" transform="translate(249.182 192.534)">
      <path id="Path_2021" data-name="Path 2021" d="M392.128,342.673s-4.4-8.7.622-17.287,6.491-10.606,3.286-12.36-4.684,6.863-4.684,6.863a17.868,17.868,0,0,1-.475-12.135c2.2-6.2,3.634-16.322.589-17.408s-.582,12.615-3.226,17.287a37.144,37.144,0,0,1-2.59-10.188c-.361-4.988.207-12.949-2.2-14.993s-3.942-.607-1.579,10.376a105.173,105.173,0,0,1,2.349,19.957s-5.226-14.441-8.7-14.86-3.5,4.247-.5,8.307,8.76,11.316,9.7,15.078c0,0-5.728-10.861-10.888-7.536s4.49,9.9,8.787,12.269,7.288,17.232,7.288,17.232Z" transform="translate(-372.358 -281.663)" fill="#2d284b"/>
      <path id="Path_2022" data-name="Path 2022" d="M392.128,342.673s-4.4-8.7.622-17.287,6.491-10.606,3.286-12.36-4.684,6.863-4.684,6.863a17.868,17.868,0,0,1-.475-12.135c2.2-6.2,3.634-16.322.589-17.408s-.582,12.615-3.226,17.287a37.144,37.144,0,0,1-2.59-10.188c-.361-4.988.207-12.949-2.2-14.993s-3.942-.607-1.579,10.376a105.173,105.173,0,0,1,2.349,19.957s-5.226-14.441-8.7-14.86-3.5,4.247-.5,8.307,8.76,11.316,9.7,15.078c0,0-5.728-10.861-10.888-7.536s4.49,9.9,8.787,12.269,7.288,17.232,7.288,17.232Z" transform="translate(-372.358 -281.663)" opacity="0.2"/>
      <path id="Path_2023" data-name="Path 2023" d="M393.751,348.477s4.29-8.768-.85-17.281-6.632-10.515-3.446-12.318,4.765,6.8,4.765,6.8a17.681,17.681,0,0,0,.315-12.135c-2.309-6.171-3.848-16.274-.816-17.4s.75,12.609,3.453,17.238a36.874,36.874,0,0,0,2.449-10.218c.3-4.994-.375-12.949,2.008-15.024s3.942-.68,1.72,10.358a105.075,105.075,0,0,0-2.081,19.981s5.032-14.508,8.532-14.975,3.553,4.2.609,8.3-8.633,11.438-9.536,15.169c0,0,5.588-10.922,10.787-7.676s-4.357,9.951-8.619,12.378-7.08,17.342-7.08,17.342Z" transform="translate(-377.461 -283.894)" fill="#2d284b"/>
      <path id="Path_2024" data-name="Path 2024" d="M408.741,377.8h-35.4l2.864,22.973h29.672Z" transform="translate(-372.683 -319.467)" fill="#263238"/>
    </g>
    <g id="freepik--speech-bubble--inject-3" transform="translate(77.393 106.424)">
      <path id="Path_2025" data-name="Path 2025" d="M142.4,139.75H119.043a3.246,3.246,0,0,0-3.393,3.076V163.42a3.246,3.246,0,0,0,3.393,3.076h7.475l-5.032,6.2,8.7-6.2H142.4a3.246,3.246,0,0,0,3.393-3.076V142.826a3.246,3.246,0,0,0-3.386-3.076Z" transform="translate(-115.65 -139.75)" fill="#2d284b"/>
      <path id="Path_2026" data-name="Path 2026" d="M142.4,139.75H119.043a3.246,3.246,0,0,0-3.393,3.076V163.42a3.246,3.246,0,0,0,3.393,3.076h7.475l-5.032,6.2,8.7-6.2H142.4a3.246,3.246,0,0,0,3.393-3.076V142.826a3.246,3.246,0,0,0-3.386-3.076Z" transform="translate(-115.65 -139.75)" fill="#fff" opacity="0.6"/>
      <ellipse id="Ellipse_39" data-name="Ellipse 39" cx="10.607" cy="9.617" rx="10.607" ry="9.617" transform="translate(4.47 3.756)" fill="#2d284b"/>
      <path id="Path_2131" data-name="Path 2131" d="M9.039,1.319c4.579.1,8.376,4.241,8.48,9.239s-3.522,8.965-8.1,8.86S1.042,15.177.938,10.179,4.46,1.214,9.039,1.319Z" transform="translate(2.862 19.967) rotate(-76.72)" opacity="0.2"/>
      <path id="Path_2027" data-name="Path 2027" d="M134.111,163.187a.992.992,0,0,1-.669-.237l-3.861-3.428a.791.791,0,0,1-.02-1.2,1,1,0,0,1,1.318-.018l3.165,2.809,5.474-5.54a1,1,0,0,1,1.28-.035.789.789,0,0,1,.105,1.157l-6.123,6.2a.966.966,0,0,1-.669.279Z" transform="translate(-120.164 -145.876)" fill="#fff"/>
    </g>
    <g id="freepik--Character--inject-3" transform="translate(34.639 119.158)">
      <path id="Path_2028" data-name="Path 2028" d="M91.226,379.027l19.28-1.723V357.59h7.642V377.3l19.36,1.729a3.544,3.544,0,0,1,3.386,3.386v2.627H87.84v-2.627a3.544,3.544,0,0,1,3.386-3.386Z" transform="translate(-63.697 -238.144)" fill="#263238"/>
      <path id="Path_2029" data-name="Path 2029" d="M91.226,379.027l19.28-1.723V357.59h7.642V377.3l19.36,1.729a3.544,3.544,0,0,1,3.386,3.386v2.627H87.84v-2.627a3.544,3.544,0,0,1,3.386-3.386Z" transform="translate(-63.697 -238.144)" fill="#fff" opacity="0.1"/>
      <ellipse id="Ellipse_41" data-name="Ellipse 41" cx="4.999" cy="4.533" rx="4.999" ry="4.533" transform="translate(70.158 145.616)" fill="#263238"/>
      <ellipse id="Ellipse_42" data-name="Ellipse 42" cx="4.999" cy="4.533" rx="4.999" ry="4.533" transform="translate(21.185 145.616)" fill="#263238"/>
      <path id="Path_2030" data-name="Path 2030" d="M2.764,0H7.528a2.644,2.644,0,0,1,2.764,2.506v19.38H0V2.506A2.644,2.644,0,0,1,2.764,0Z" transform="translate(55.763 124.725) rotate(180)" fill="#263238"/>
      <path id="Path_2031" data-name="Path 2031" d="M2.764,0H7.528a2.644,2.644,0,0,1,2.764,2.506v19.38H0V2.506A2.644,2.644,0,0,1,2.764,0Z" transform="translate(55.763 124.725) rotate(180)" fill="#fff" opacity="0.2"/>
      <path id="Path_2032" data-name="Path 2032" d="M82.962,267.62S88.69,300.01,100,305.61H88.5s-11.376-11.043-14.8-37.99Z" transform="translate(-59.019 -202.766)" fill="#263238"/>
      <path id="Path_2033" data-name="Path 2033" d="M82.962,267.62S88.69,300.01,100,305.61H88.5s-11.376-11.043-14.8-37.99Z" transform="translate(-59.019 -202.766)" fill="#fff" opacity="0.1"/>
      <path id="Path_2034" data-name="Path 2034" d="M93.346,322.68h44.783a3.2,3.2,0,0,1,3.346,3.034v4.059H90v-4.059A3.2,3.2,0,0,1,93.346,322.68Z" transform="translate(-64.411 -224.417)" fill="#2d284b"/>
      <rect id="Rectangle_367" data-name="Rectangle 367" width="55.764" height="3.544" rx="1.772" transform="translate(23.421 101.807)" fill="#263238"/>
      <rect id="Rectangle_368" data-name="Rectangle 368" width="55.764" height="3.544" rx="1.772" transform="translate(23.421 101.807)" fill="#fff" opacity="0.6"/>
      <path id="Path_2035" data-name="Path 2035" d="M65.084,262.952h18.4c5.394,0,8.894-3.92,7.823-8.756l-1.432-6.456c-1.071-4.854-6.311-8.75-11.7-8.75h-18.4c-5.394,0-8.894,3.92-7.823,8.75l1.432,6.456C54.458,259.02,59.691,262.952,65.084,262.952Z" transform="translate(-51.762 -191.508)" fill="#2d284b"/>
      <path id="Path_2036" data-name="Path 2036" d="M212.595,360.8l-4.216,1.5-3.031-5.182-2.757-4.715,4.671-2.536,2.824,5.783Z" transform="translate(-101.656 -235.109)" fill="#e4897b"/>
      <path id="Path_2037" data-name="Path 2037" d="M210.085,355.653l-4.738,1.468-2.757-4.715,4.671-2.536Z" transform="translate(-101.656 -235.109)" opacity="0.2"/>
      <path id="Path_2038" data-name="Path 2038" d="M173.086,322.705l-5.735,2.791s-21.675-34.556-25.008-34.265-34.952,18.555-44.6,11.808-.261-27.062-.261-27.062,19.949-5.17,22.084-1.214A28.382,28.382,0,0,1,121,278.4c.422,1.244.743,2.294.743,2.294h0c.609-.225,20.31-7.548,29.1-3.641C159.822,281.074,173.086,322.705,173.086,322.705Z" transform="translate(-65.534 -204.989)" fill="#263238"/>
      <path id="Path_2039" data-name="Path 2039" d="M173.086,322.705l-5.735,2.791s-21.675-34.556-25.008-34.265-34.952,18.555-44.6,11.808-.261-27.062-.261-27.062,19.949-5.17,22.084-1.214A28.382,28.382,0,0,1,121,278.4c.422,1.244.743,2.294.743,2.294h0c.609-.225,20.31-7.548,29.1-3.641C159.822,281.074,173.086,322.705,173.086,322.705Z" transform="translate(-65.534 -204.989)" fill="#fff" opacity="0.3"/>
      <path id="Path_2040" data-name="Path 2040" d="M163.68,393.579l-4.5-.467-.027-5.752-.007-5.279,5.441-.231-.482,6.207Z" transform="translate(-87.286 -247.684)" fill="#e4897b"/>
      <path id="Path_2041" data-name="Path 2041" d="M164.092,388.2l-4.952-.716v-5.333l5.441-.261Z" transform="translate(-87.283 -247.7)" opacity="0.2"/>
      <path id="Path_2042" data-name="Path 2042" d="M199.72,354.041l8.392-3.811.877,3.228-6.357,2.973Z" transform="translate(-100.707 -235.25)" fill="#2d284b"/>
      <path id="Path_2043" data-name="Path 2043" d="M122.16,313.1s1.379-.14,22.586-3.7c0,0,.482,24.586,1.486,42.917l6.531.188s9.369-40.654,8.265-46.819-9.161-6.972-9.161-6.972S137.873,308.594,122.16,313.1Z" transform="translate(-75.05 -214.991)" fill="#263238"/>
      <path id="Path_2044" data-name="Path 2044" d="M122.16,313.1s1.379-.14,22.586-3.7c0,0,.482,24.586,1.486,42.917l6.531.188s9.369-40.654,8.265-46.819-9.161-6.972-9.161-6.972S137.873,308.594,122.16,313.1Z" transform="translate(-75.05 -214.991)" fill="#fff" opacity="0.4"/>
      <path id="Path_2045" data-name="Path 2045" d="M122.16,313.1s1.379-.14,22.586-3.7c0,0,.482,24.586,1.486,42.917l6.531.188s9.369-40.654,8.265-46.819-9.161-6.972-9.161-6.972S137.873,308.594,122.16,313.1Z" transform="translate(-75.05 -214.991)" opacity="0.3"/>
      <path id="Path_2046" data-name="Path 2046" d="M156.34,384.228l8.907-.188-1.218,3.325-7.227.061Z" transform="translate(-86.356 -248.545)" fill="#2d284b"/>
      <path id="Path_2047" data-name="Path 2047" d="M130.087,284.044l-11.557,3.732a72.848,72.848,0,0,1,10.814-6.025C129.766,282.994,130.087,284.044,130.087,284.044Z" transform="translate(-73.849 -208.322)" opacity="0.3"/>
      <path id="Path_2048" data-name="Path 2048" d="M97.51,272.626l.428,2.906,21.662-4.169-.5-3.434Z" transform="translate(-66.896 -202.888)" fill="#263238"/>
      <path id="Path_2049" data-name="Path 2049" d="M97.51,272.626l.428,2.906,21.662-4.169-.5-3.434Z" transform="translate(-66.896 -202.888)" opacity="0.2"/>
      <path id="Path_2132" data-name="Path 2132" d="M.5.1,1.59.114,1.683,5.2.589,5.179Z" transform="translate(36.208 67.805) rotate(-10.51)" fill="#263238"/>
      <path id="Path_2133" data-name="Path 2133" d="M.425.354l4.823.1L5.322,3.8.5,3.7Z" transform="matrix(0.976, -0.22, 0.22, 0.976, 42.019, 67.079)" fill="#fff"/>
      <path id="Path_2134" data-name="Path 2134" d="M.489.094,1.58.112l.092,5.065L.582,5.159Z" transform="matrix(0.984, -0.181, 0.181, 0.984, 48.703, 64.512)" fill="#263238"/>
      <path id="Path_2135" data-name="Path 2135" d="M.5.1,1.59.114,1.683,5.2.589,5.179Z" transform="translate(36.208 67.805) rotate(-10.51)" fill="#fff" opacity="0.3"/>
      <path id="Path_2136" data-name="Path 2136" d="M.489.094,1.58.112l.092,5.065L.582,5.159Z" transform="matrix(0.984, -0.181, 0.181, 0.984, 48.703, 64.512)" fill="#fff" opacity="0.3"/>
      <path id="Path_2050" data-name="Path 2050" d="M223.652,375.075a6.551,6.551,0,0,0-2.175-.224h0s-2.724-1.032-6.023-5.94l-2.811.334a2.252,2.252,0,0,0-1.941,1.669,1.1,1.1,0,0,0,0,.364,13.219,13.219,0,0,0,.5,1.82,48.876,48.876,0,0,0,2.55,5.783l.455-.17-1.452-3.677c-.482-1.256,1.2-.194,2.088,1.019s2.155,2.391,5.16,1.359C223.491,376.173,224.876,375.518,223.652,375.075Z" transform="translate(-104.335 -242.596)" fill="#263238"/>
      <path id="Path_2051" data-name="Path 2051" d="M214.745,366.76s4.51,6.213,6.725,7.245c0,0-2.483,1.82-5.8-1.1-4.276-3.756-4.992-2.47-4.992-2.47a10.693,10.693,0,0,1,.114-2.2C211.138,366.8,214.745,366.76,214.745,366.76Z" transform="translate(-104.328 -241.75)" fill="#e4897b"/>
      <path id="Path_2052" data-name="Path 2052" d="M170.24,407.907a6.5,6.5,0,0,0-2.075-.667h0s-2.376-1.584-4.283-7.057l-2.817-.279a2.363,2.363,0,0,0-2.322,1.214,1.077,1.077,0,0,0-.12.346,12.37,12.37,0,0,0,0,1.863,46.254,46.254,0,0,0,.964,6.165l.489-.067-.435-3.9c-.141-1.323,1.218.073,1.767,1.444s1.466,2.785,4.651,2.427C169.778,408.945,171.291,408.605,170.24,407.907Z" transform="translate(-87.1 -254.779)" fill="#263238"/>
      <path id="Path_2053" data-name="Path 2053" d="M163.569,397.867s2.757,7.008,4.638,8.495c0,0-2.884,1.214-5.354-2.318-3.179-4.569-4.2-3.471-4.2-3.471a10.9,10.9,0,0,1,.669-2.112C160.029,397.127,163.569,397.867,163.569,397.867Z" transform="translate(-87.121 -253.902)" fill="#e4897b"/>
      <path id="Path_2054" data-name="Path 2054" d="M84.589,190.26l-5.661,1.032a2.018,2.018,0,0,1-1.619.358c-1.686-.607-4.116-2.385-4.423-3.034-.455-.916,0-3.6,1.191-4.09s5.293,4,5.293,4l6.083-1.244Z" transform="translate(-58.692 -170.077)" fill="#e4897b"/>
      <path id="Path_2055" data-name="Path 2055" d="M106.713,208.247s-.515-16.632-2.637-17.342-18.068,1.274-18.068,1.274l-.388-3.8s18.557-2.591,22.151-1.056,4.778,26.322,4.122,31.1Z" transform="translate(-62.962 -171.001)" fill="#2d284b"/>
      <path id="Path_2056" data-name="Path 2056" d="M106.713,208.247s-.515-16.632-2.637-17.342-18.068,1.274-18.068,1.274l-.388-3.8s18.557-2.591,22.151-1.056,4.778,26.322,4.122,31.1Z" transform="translate(-62.962 -171.001)" fill="#fff" opacity="0.6"/>
      <path id="Path_2057" data-name="Path 2057" d="M86.061,193.2l-1.111-4.175,1.593-.522,1.01,4.824Z" transform="translate(-62.741 -171.654)" fill="#2d284b"/>
      <path id="Path_2058" data-name="Path 2058" d="M86.061,193.2l-1.111-4.175,1.593-.522,1.01,4.824Z" transform="translate(-62.741 -171.654)" fill="#fff" opacity="0.7"/>
      <path id="Path_2059" data-name="Path 2059" d="M105.753,218.7s-1.425,5.061-8.291,6.675S83,222.771,83,222.771l1.512,12.075,8.405,19.022L114.4,248.79S113.114,226.661,105.753,218.7Z" transform="translate(-62.096 -183.529)" fill="#2d284b"/>
      <path id="Path_2060" data-name="Path 2060" d="M105.753,218.7s-1.425,5.061-8.291,6.675S83,222.771,83,222.771l1.512,12.075,8.405,19.022L114.4,248.79S113.114,226.661,105.753,218.7Z" transform="translate(-62.096 -183.529)" fill="#fff" opacity="0.7"/>
      <path id="Path_2137" data-name="Path 2137" d="M1.334.394,3.948.464a.541.541,0,0,1,.538.5L4.62,5.519a.472.472,0,0,1-.51.47L1.5,5.918a.541.541,0,0,1-.538-.5L.824.863A.472.472,0,0,1,1.334.394Z" transform="translate(51.296 54.492) rotate(162.49)" fill="#2d284b" opacity="0.6"/>
      <path id="Path_2138" data-name="Path 2138" d="M.609.339l2.973.08.11,3.754L.719,4.093Z" transform="translate(50.421 53.247) rotate(162.49)" opacity="0.2"/>
      <path id="Path_2139" data-name="Path 2139" d="M.341.1,1,.117l.065,2.211L.406,2.31Z" transform="translate(45.795 48.465) rotate(-17.51)" fill="#263238"/>
      <path id="Path_2061" data-name="Path 2061" d="M91.325,187.55c-5.293,0-8.787,5.085-7.549,13.149s6.2,10.388,6.2,10.388l-.315-1.948a55.534,55.534,0,0,0,16.79.849,31.133,31.133,0,0,1-1.727-13.294S106.4,187.538,91.325,187.55Z" transform="translate(-62.27 -171.28)" fill="#263238"/>
      <path id="Path_2062" data-name="Path 2062" d="M105.448,226.935l2.162,7.281-3.8-2.627s3.7,7.67,4.684,12.135a92.472,92.472,0,0,0-5.956-11.771l-1.613,4.175-6.485-5.989S100.168,226.158,105.448,226.935Z" transform="translate(-65.88 -186.728)" opacity="0.2"/>
      <path id="Path_2063" data-name="Path 2063" d="M101.741,224.96l-6.6.182c2.924-3.392-2.362-9.3-2.362-9.3l6.518,1.28c1.553,5.849,4.236,6.025,4.236,6.025Z" transform="translate(-65.331 -182.405)" fill="#e4897b"/>
      <path id="Path_2064" data-name="Path 2064" d="M101.118,221.335a10.291,10.291,0,0,1-6.545-2.955,17.954,17.954,0,0,0-1.793-2.5l6.518,1.286a12.745,12.745,0,0,0,1.82,4.169Z" transform="translate(-65.331 -182.42)" opacity="0.2"/>
      <path id="Path_2065" data-name="Path 2065" d="M98.488,191.6c5.682.431,7.261,3.325,7.187,8.671-.087,6.675-2.148,11.268-9.121,9.314C87.078,206.938,89.046,190.889,98.488,191.6Z" transform="translate(-64.528 -172.866)" fill="#e4897b"/>
      <path id="Path_2066" data-name="Path 2066" d="M107.754,205a10.778,10.778,0,0,0,1.459,2.263,1.677,1.677,0,0,1-1.553.467Z" transform="translate(-70.253 -178.142)" fill="#de5753"/>
      <path id="Path_2067" data-name="Path 2067" d="M102.05,203.344l1.231-.364S102.626,203.866,102.05,203.344Z" transform="translate(-68.397 -177.348)" fill="#263238"/>
      <path id="Path_2068" data-name="Path 2068" d="M102.028,203.307a1.115,1.115,0,0,0-1.338.328,1.764,1.764,0,0,1,1.338,0Z" transform="translate(-67.947 -177.438)" fill="#263238"/>
      <path id="Path_2069" data-name="Path 2069" d="M99.151,198.611a.253.253,0,0,1-.167-.067.2.2,0,0,1,0-.309,3.439,3.439,0,0,1,2.764-.655.221.221,0,0,1,.187.261.244.244,0,0,1-.288.17,2.969,2.969,0,0,0-2.315.528.246.246,0,0,1-.181.073Z" transform="translate(-67.359 -175.2)" fill="#263238"/>
      <path id="Path_2070" data-name="Path 2070" d="M111.373,198.779a.244.244,0,0,1-.147-.042,2.613,2.613,0,0,0-2.008-.558.246.246,0,0,1-.3-.155.219.219,0,0,1,.171-.27,3.1,3.1,0,0,1,2.443.637.21.21,0,0,1,.04.309A.253.253,0,0,1,111.373,198.779Z" transform="translate(-70.667 -175.277)" fill="#263238"/>
      <path id="Path_2071" data-name="Path 2071" d="M90.777,198.446s3.045-4.029,2.944-7.33c0,0,11.651-3.325,11.256,7.087,0,0,1.941-9.1-7.81-10.066s-10.881,12.032-6.19,16.28C90.978,204.417,88.91,200.97,90.777,198.446Z" transform="translate(-63.85 -171.491)" fill="#263238"/>
      <path id="Path_2072" data-name="Path 2072" d="M91.251,205.6a2.394,2.394,0,0,0-2.5-2.269c-1.78.042-2.918,3.258,1.392,4.381C90.762,207.869,91.17,207.341,91.251,205.6Z" transform="translate(-63.474 -177.485)" fill="#e4897b"/>
      <path id="Path_2073" data-name="Path 2073" d="M105.878,210.875a12.4,12.4,0,0,0-1.118,1.6c-.114-.036-.234-.067-.348-.109-1.573-.5-2.121-1.214-2.249-1.82a1.725,1.725,0,0,1,.074-.922,1.888,1.888,0,0,1,.241-.485,7.936,7.936,0,0,0,2.864,1.565C105.664,210.815,105.878,210.875,105.878,210.875Z" transform="translate(-68.425 -179.77)" fill="#263238"/>
      <path id="Path_2074" data-name="Path 2074" d="M105.4,210.685l-.341.467c-1.486-.479-2.456-1-2.764-1.547a1.888,1.888,0,0,1,.241-.485A7.937,7.937,0,0,0,105.4,210.685Z" transform="translate(-68.477 -179.762)" fill="#fff"/>
      <path id="Path_2075" data-name="Path 2075" d="M104.429,213.28c-1.573-.5-2.121-1.214-2.249-1.82a5.444,5.444,0,0,1,1.626.868A1.8,1.8,0,0,1,104.429,213.28Z" transform="translate(-68.44 -180.682)" fill="#de5753"/>
      <path id="Path_2076" data-name="Path 2076" d="M96.947,189.963S93.876,198.269,88,197.7s4.2-10.606,4.2-10.606,9.911-2.567,14.227,2.427-2.135,8.022-2.135,8.022S105.252,191.025,96.947,189.963Z" transform="translate(-63.141 -170.841)" fill="#263238"/>
      <path id="Path_2077" data-name="Path 2077" d="M95.2,198.827a.189.189,0,0,1-.161-.1.154.154,0,0,1,.1-.2c4.684-1.62,4.577-7.318,4.577-7.378a.132.132,0,0,1,.042-.109.162.162,0,0,1,.118-.043.175.175,0,0,1,.174.146c0,.061.107,5.971-4.791,7.67Z" transform="translate(-66.073 -172.637)" fill="#263238"/>
      <path id="Path_2078" data-name="Path 2078" d="M110.67,204.178l1.231-.358S111.239,204.7,110.67,204.178Z" transform="translate(-71.249 -177.678)" fill="#263238"/>
      <path id="Path_2079" data-name="Path 2079" d="M110.648,204.136a1.107,1.107,0,0,0-1.338.334,1.749,1.749,0,0,1,1.338-.036Z" transform="translate(-70.799 -177.764)" fill="#263238"/>
      <path id="Path_2080" data-name="Path 2080" d="M96.605,227.13l4.972,2.294-.08,4.569-7.107-3.756Z" transform="translate(-65.863 -186.844)" fill="#2d284b"/>
      <path id="Path_2081" data-name="Path 2081" d="M106.26,225.71l.294,2.773L109.8,231.6l-.442-5.121Z" transform="translate(-69.79 -186.286)" fill="#2d284b"/>
      <path id="Path_2082" data-name="Path 2082" d="M66.512,168.784l-2.075-4.854A1.6,1.6,0,0,0,63.9,162.5a12.405,12.405,0,0,0-5.18-1.76c-1.091.146-3.346,1.936-3.152,3.107s6.565,1.893,6.565,1.893l2.115,5.321Z" transform="translate(-53.016 -160.736)" fill="#e4897b"/>
      <path id="Path_2083" data-name="Path 2083" d="M78.882,215.979s4.015-2.894,2.416-9.29L76.982,189,69.567,170.72l-3.627,1.663s6.09,17.857,6.652,19.065c.288.607,1.432,9.872,2.991,16.08A28.489,28.489,0,0,0,78.882,215.979Z" transform="translate(-56.452 -164.662)" fill="#2d284b"/>
      <path id="Path_2084" data-name="Path 2084" d="M78.882,215.979s4.015-2.894,2.416-9.29L76.982,189,69.567,170.72l-3.627,1.663s6.09,17.857,6.652,19.065c.288.607,1.432,9.872,2.991,16.08A28.489,28.489,0,0,0,78.882,215.979Z" transform="translate(-56.452 -164.662)" fill="#fff" opacity="0.6"/>
      <path id="Path_2085" data-name="Path 2085" d="M64.99,171.353l4.236-1.923.923,1.28L65.2,172.7Z" transform="translate(-56.138 -164.155)" fill="#2d284b"/>
      <path id="Path_2086" data-name="Path 2086" d="M64.99,171.353l4.236-1.923.923,1.28L65.2,172.7Z" transform="translate(-56.138 -164.155)" fill="#fff" opacity="0.7"/>
      <path id="Path_2087" data-name="Path 2087" d="M96.605,227.13l4.972,2.294-.08,4.569-7.107-3.756Z" transform="translate(-65.863 -186.844)" fill="#fff" opacity="0.6"/>
      <path id="Path_2088" data-name="Path 2088" d="M106.26,225.71l.294,2.773L109.8,231.6l-.442-5.121Z" transform="translate(-69.79 -186.286)" fill="#fff" opacity="0.6"/>
    </g>
    <g id="freepik--Desk--inject-3" transform="translate(92.624 149.135)">
      <rect id="Rectangle_377" data-name="Rectangle 377" width="20.049" height="14.126" transform="translate(99.637 0.771)" fill="#fff"/>
      <rect id="Rectangle_378" data-name="Rectangle 378" width="5.139" height="14.126" transform="translate(114.547 0.771)" opacity="0.1"/>
      <path id="Path_2089" data-name="Path 2089" d="M285.58,238.636h22.666V213h-7.3l-15.365,6.668Z" transform="translate(-187.094 -211.265)" fill="#2d284b"/>
      <rect id="Rectangle_379" data-name="Rectangle 379" width="7.301" height="25.636" transform="translate(113.851 1.735)" opacity="0.2"/>
      <rect id="Rectangle_380" data-name="Rectangle 380" width="10.614" height="4.611" transform="translate(100.822 13.458)" fill="#fff" opacity="0.7"/>
      <rect id="Rectangle_381" data-name="Rectangle 381" width="10.614" height="0.661" transform="translate(100.822 19.611)" fill="#fff" opacity="0.7"/>
      <rect id="Rectangle_382" data-name="Rectangle 382" width="5.896" height="3.914" transform="translate(114.547 21.547)" fill="#fff" opacity="0.7"/>
      <rect id="Rectangle_383" data-name="Rectangle 383" width="20.049" height="14.896" transform="translate(91.118)" fill="#fff"/>
      <rect id="Rectangle_384" data-name="Rectangle 384" width="5.139" height="14.896" transform="translate(106.028)" opacity="0.1"/>
      <path id="Path_2090" data-name="Path 2090" d="M272.85,238.636h22.666V213h-7.3l-15.365,6.668Z" transform="translate(-182.883 -211.265)" fill="#2d284b"/>
      <rect id="Rectangle_385" data-name="Rectangle 385" width="7.301" height="25.636" transform="translate(105.332 1.735)" opacity="0.2"/>
      <rect id="Rectangle_386" data-name="Rectangle 386" width="10.614" height="4.611" transform="translate(92.303 13.458)" fill="#fff" opacity="0.7"/>
      <rect id="Rectangle_387" data-name="Rectangle 387" width="10.614" height="0.661" transform="translate(92.303 19.611)" fill="#fff" opacity="0.7"/>
      <rect id="Rectangle_388" data-name="Rectangle 388" width="5.896" height="3.914" transform="translate(106.028 21.547)" fill="#fff" opacity="0.7"/>
      <path id="Path_2091" data-name="Path 2091" d="M251.81,355.4h4.1l7.361-92.988h-5.441Z" transform="translate(-175.923 -230.694)" fill="#263238"/>
      <path id="Path_2092" data-name="Path 2092" d="M251.81,355.5h4.1l7-88.371.361-4.466h-5.441l-.288,4.466Z" transform="translate(-175.923 -230.792)" fill="#fff" opacity="0.1"/>
      <path id="Path_2093" data-name="Path 2093" d="M260.38,266.907h5.367l.361-4.247h-5.441Z" transform="translate(-178.758 -230.792)" opacity="0.2"/>
      <path id="Path_2094" data-name="Path 2094" d="M206.519,355.4h4.1l.669-92.988H205.85Z" transform="translate(-160.719 -230.694)" fill="#263238"/>
      <path id="Path_2095" data-name="Path 2095" d="M205.84,262.66l.114,15,.555,77.837h4.1l.562-77.837.107-15Z" transform="translate(-160.716 -230.792)" fill="#fff" opacity="0.1"/>
      <path id="Path_2096" data-name="Path 2096" d="M205.84,262.66l.114,15.169h5.22l.107-15.169Z" transform="translate(-160.716 -230.792)" opacity="0.2"/>
      <path id="Path_2097" data-name="Path 2097" d="M141.81,355.4h4.1l7.361-92.988h-5.441Z" transform="translate(-139.535 -230.694)" fill="#263238"/>
      <path id="Path_2098" data-name="Path 2098" d="M141.81,355.5h4.1l7.007-88.371.355-4.466h-5.441l-.288,4.466Z" transform="translate(-139.535 -230.792)" fill="#fff" opacity="0.1"/>
      <path id="Path_2099" data-name="Path 2099" d="M150.38,266.907h5.374l.355-4.247h-5.441Z" transform="translate(-142.37 -230.792)" opacity="0.2"/>
      <path id="Path_2100" data-name="Path 2100" d="M318.248,355.4h4.1l-6.029-92.988H310.88Z" transform="translate(-195.463 -230.694)" fill="#263238"/>
      <path id="Path_2101" data-name="Path 2101" d="M310.88,262.66l.368,4.466,7,88.371h4.1l-5.728-88.371-.294-4.466Z" transform="translate(-195.463 -230.792)" fill="#fff" opacity="0.1"/>
      <path id="Path_2102" data-name="Path 2102" d="M316.321,262.66H310.88l.368,4.247h5.367Z" transform="translate(-195.463 -230.792)" opacity="0.2"/>
      <path id="Path_2103" data-name="Path 2103" d="M1.445,0H119.733a1.383,1.383,0,0,1,1.445,1.311V4.654H0V1.311A1.383,1.383,0,0,1,1.445,0Z" transform="translate(125.174 34.046) rotate(180)" fill="#2d284b"/>
      <path id="Path_2104" data-name="Path 2104" d="M1.445,0H119.733a1.383,1.383,0,0,1,1.445,1.311V4.654H0V1.311A1.383,1.383,0,0,1,1.445,0Z" transform="translate(125.174 34.046) rotate(180)" fill="#fff" opacity="0.4"/>
      <rect id="Rectangle_389" data-name="Rectangle 389" width="121.179" height="2.33" transform="translate(125.174 31.716) rotate(180)" opacity="0.2"/>
      <path id="Path_2105" data-name="Path 2105" d="M139.862,257.871H266.12a1.518,1.518,0,0,0,1.024-.382,1.245,1.245,0,0,0,.421-.929h0a1.383,1.383,0,0,0-1.445-1.311H139.862a1.39,1.39,0,0,0-1.452,1.311h0a1.252,1.252,0,0,0,.426.929,1.525,1.525,0,0,0,1.026.382Z" transform="translate(-138.41 -227.878)" fill="#2d284b"/>
      <path id="Path_2106" data-name="Path 2106" d="M139.862,257.871H266.12a1.518,1.518,0,0,0,1.024-.382,1.245,1.245,0,0,0,.421-.929h0a1.383,1.383,0,0,0-1.445-1.311H139.862a1.39,1.39,0,0,0-1.452,1.311h0a1.252,1.252,0,0,0,.426.929,1.525,1.525,0,0,0,1.026.382Z" transform="translate(-138.41 -227.878)" fill="#fff" opacity="0.4"/>
      <path id="Path_2107" data-name="Path 2107" d="M273.152,247.267v-2.051h1.519l-1.519-.8h1.138l-1.519-.9h-1.439v-1.032h1.673l-1.673-.6v-2.239h1.673v-1.462h1.666l-1.666-.51V236.63H274.2l-.977-.88-.843-.771H246.518v1.05h-1.706l1.9.777v.868h-3.487v1.614H241.68l1.546.7v1.8h1.1v.862h2.195v2.561h-1.231l1.01.916v1.147Z" transform="translate(-172.572 -219.908)" fill="#2d284b"/>
      <path id="Path_2108" data-name="Path 2108" d="M273.152,247.267v-2.051h1.519l-1.519-.8h1.138l-1.519-.9h-1.439v-1.032h1.673l-1.673-.6v-2.239h1.673v-1.462h1.666l-1.666-.51V236.63H274.2l-.977-.88-.843-.771H246.518v1.05h-1.706l1.9.777v.868h-3.487v1.614H241.68l1.546.7v1.8h1.1v.862h2.195v2.561h-1.231l1.01.916v1.147Z" transform="translate(-172.572 -219.908)" fill="#fff" opacity="0.7"/>
      <path id="Path_2109" data-name="Path 2109" d="M279.2,247.267v-2.051h1.519l-1.519-.8h1.138l-1.519-.9h-1.439v-1.032h1.673l-1.673-.6v-2.239h1.673v-1.462h1.666l-1.666-.51V236.63h1.191l-.977-.88-.843-.771H264.8v1.05H263.1l1.894.777v.868h-3.487v1.614H259.96l1.546.7v1.8h1.1v.862h2.2v2.561h-1.231l1,.916v1.147Z" transform="translate(-178.619 -219.908)" opacity="0.1"/>
      <path id="Path_2110" data-name="Path 2110" d="M249.2,239.16h12.233l-12.233-.4Z" transform="translate(-175.059 -221.394)" opacity="0.1"/>
      <path id="Path_2111" data-name="Path 2111" d="M248.91,247.63h12.24l.054.777Z" transform="translate(-174.963 -224.882)" opacity="0.1"/>
      <path id="Path_2112" data-name="Path 2112" d="M245.63,246.21h12.233l-12.233.388Z" transform="translate(-173.878 -224.324)" opacity="0.1"/>
      <path id="Path_2113" data-name="Path 2113" d="M248.91,251.587h12.24l-12.24-.407Z" transform="translate(-174.963 -226.278)" opacity="0.1"/>
      <path id="Path_2114" data-name="Path 2114" d="M248.58,253.36h12.233v.425Z" transform="translate(-174.854 -227.135)" opacity="0.1"/>
      <path id="Path_2115" data-name="Path 2115" d="M243.99,241.852h12.233L243.99,241.5Z" transform="translate(-173.336 -222.472)" opacity="0.1"/>
      <path id="Path_2116" data-name="Path 2116" d="M248.91,236.458h12.24l-12.24-.388Z" transform="translate(-174.963 -220.336)" opacity="0.1"/>
      <path id="Path_2117" data-name="Path 2117" d="M282.354,237.7H269.94l12.414.346Z" transform="translate(-181.92 -220.977)" opacity="0.1"/>
      <path id="Path_2118" data-name="Path 2118" d="M267.48,239.42h14.06l-12.748.376Z" transform="translate(-181.106 -221.654)" opacity="0.1"/>
      <path id="Path_2119" data-name="Path 2119" d="M262.27,242.08l17.546.358v-.358Z" transform="translate(-179.383 -222.7)" opacity="0.1"/>
      <path id="Path_2120" data-name="Path 2120" d="M262.27,243.24h8.68l-8.68.382Z" transform="translate(-179.383 -223.156)" opacity="0.1"/>
      <path id="Path_2121" data-name="Path 2121" d="M279.774,246.136l-12.574-.091,12.574-.255Z" transform="translate(-181.014 -224.158)" opacity="0.1"/>
      <path id="Path_2122" data-name="Path 2122" d="M279.662,247.35h-12.8l12.8.388Z" transform="translate(-180.901 -224.772)" opacity="0.1"/>
      <path id="Path_2123" data-name="Path 2123" d="M281.687,250.53H267.48v.394Z" transform="translate(-181.106 -226.022)" opacity="0.1"/>
      <path id="Path_2124" data-name="Path 2124" d="M283.622,251.85H273.33l10.292.261Z" transform="translate(-183.042 -226.541)" opacity="0.1"/>
      <path id="Path_2125" data-name="Path 2125" d="M217.108,250.87v1.948c0,.5-.669.7-1.2.7H173c-.549,0-1.211-.206-1.211-.7V250.87Z" transform="translate(-149.452 -226.156)" fill="#263238"/>
      <path id="Path_2126" data-name="Path 2126" d="M217.108,250.87v1.948c0,.5-.669.7-1.2.7H173c-.549,0-1.211-.206-1.211-.7V250.87Z" transform="translate(-149.452 -226.156)" fill="#fff" opacity="0.4"/>
      <path id="Path_2127" data-name="Path 2127" d="M224.333,250.87v1.948c0,.5-.669.7-1.2.7h-28.3c-.549,0-1.2-.206-1.2-.7V250.87Z" transform="translate(-156.677 -226.156)" opacity="0.2"/>
      <path id="Path_2128" data-name="Path 2128" d="M232.558,216.918l-5.113,21.013a1.7,1.7,0,0,1-1.66,1.214h-27.9a1.162,1.162,0,0,1-.886-.422.942.942,0,0,1-.164-.9l5.1-20.849a1.6,1.6,0,0,1,1.66-1.032H231.5C232.25,215.923,232.718,216.232,232.558,216.918Z" transform="translate(-157.721 -212.422)" fill="#263238"/>
      <path id="Path_2129" data-name="Path 2129" d="M233.024,216.918l-5.113,21.013a1.7,1.7,0,0,1-1.66,1.214H199.3a1.162,1.162,0,0,1-.886-.422.942.942,0,0,1-.164-.9l5.106-20.849a1.594,1.594,0,0,1,1.66-1.032h26.955C232.716,215.923,233.185,216.232,233.024,216.918Z" transform="translate(-158.187 -212.421)" fill="#fff" opacity="0.4"/>
      <path id="Path_2130" data-name="Path 2130" d="M226.8,233.042h0c0,1.82-2.128,3.258-3.687,3.258s-2.483-1.462-2.008-3.258a4.219,4.219,0,0,1,3.52-3.252c-.442,1.82.509,3.252,2.061,3.252Z" transform="translate(-165.725 -217.867)" opacity="0.2"/>
    </g>
  </g>
</svg>
